<mxfile host="app.diagrams.net" modified="2023-05-15T17:23:19.319Z" agent="Mozilla/5.0 (Windows NT 10.0; Win64; x64) AppleWebKit/537.36 (KHTML, like Gecko) Chrome/90.0.4430.212 Safari/537.36 Edg/90.0.818.66" etag="96Xu9Fe8JJZV-L-V8uzg" version="21.3.2" type="device">
  <diagram id="yPxyJZ8AM_hMuL3Unpa9" name="complex gitflow">
    <mxGraphModel dx="712" dy="778" grid="1" gridSize="10" guides="1" tooltips="1" connect="1" arrows="1" fold="1" page="1" pageScale="1" pageWidth="1100" pageHeight="850" math="0" shadow="0">
      <root>
        <mxCell id="0" />
        <mxCell id="1" parent="0" />
        <mxCell id="uWUnNED6HEl2aK5fdaIb-8" value="" style="edgeStyle=orthogonalEdgeStyle;rounded=0;html=1;jettySize=auto;orthogonalLoop=1;plain-blue;endArrow=none;endFill=0;strokeWidth=4;strokeColor=#000000;entryX=0;entryY=0.5;entryDx=0;entryDy=0;entryPerimeter=0;" parent="1" source="uWUnNED6HEl2aK5fdaIb-10" edge="1">
          <mxGeometry x="292.25" y="211" as="geometry">
            <mxPoint x="452.25" y="211" as="targetPoint" />
          </mxGeometry>
        </mxCell>
        <mxCell id="uWUnNED6HEl2aK5fdaIb-9" style="edgeStyle=orthogonalEdgeStyle;curved=1;rounded=0;html=1;exitX=1;exitY=0.5;exitPerimeter=0;entryX=0;entryY=0.5;entryPerimeter=0;endArrow=none;endFill=0;jettySize=auto;orthogonalLoop=1;strokeWidth=4;fontSize=15;" parent="1" source="uWUnNED6HEl2aK5fdaIb-10" target="uWUnNED6HEl2aK5fdaIb-15" edge="1">
          <mxGeometry relative="1" as="geometry" />
        </mxCell>
        <mxCell id="uWUnNED6HEl2aK5fdaIb-10" value="" style="verticalLabelPosition=bottom;verticalAlign=top;html=1;strokeWidth=4;shape=mxgraph.flowchart.on-page_reference;plain-blue;gradientColor=none;fillColor=#B5E3Fe;strokeColor=#000000;" parent="1" vertex="1">
          <mxGeometry x="262.25" y="196" width="30" height="30" as="geometry" />
        </mxCell>
        <mxCell id="uWUnNED6HEl2aK5fdaIb-12" value="" style="edgeStyle=orthogonalEdgeStyle;rounded=0;html=1;jettySize=auto;orthogonalLoop=1;strokeWidth=4;endArrow=none;endFill=0;" parent="1" target="uWUnNED6HEl2aK5fdaIb-10" edge="1">
          <mxGeometry x="192.25" y="211" as="geometry">
            <mxPoint x="150" y="211" as="sourcePoint" />
          </mxGeometry>
        </mxCell>
        <mxCell id="uWUnNED6HEl2aK5fdaIb-13" value="master" style="text;html=1;strokeColor=none;fillColor=none;align=center;verticalAlign=middle;whiteSpace=wrap;overflow=hidden;fontSize=14;fontStyle=1;fontFamily=Courier New;" parent="1" vertex="1">
          <mxGeometry x="83" y="190" width="50" height="42" as="geometry" />
        </mxCell>
        <mxCell id="uWUnNED6HEl2aK5fdaIb-15" value="" style="verticalLabelPosition=bottom;verticalAlign=top;html=1;strokeWidth=4;shape=mxgraph.flowchart.on-page_reference;plain-purple;gradientColor=none;strokeColor=#000000;fillColor=#D5E8D4;" parent="1" vertex="1">
          <mxGeometry x="339.75" y="281" width="30" height="30" as="geometry" />
        </mxCell>
        <mxCell id="uWUnNED6HEl2aK5fdaIb-20" value="idea" style="text;html=1;strokeColor=none;fillColor=none;align=left;verticalAlign=middle;whiteSpace=wrap;overflow=hidden;fontSize=14;fontStyle=1;fontFamily=Courier New;" parent="1" vertex="1">
          <mxGeometry x="88.75" y="286" width="240" height="20" as="geometry" />
        </mxCell>
        <mxCell id="uWUnNED6HEl2aK5fdaIb-89" value="Primera rama creada" style="text;html=1;strokeColor=none;fillColor=none;align=left;verticalAlign=middle;whiteSpace=wrap;overflow=hidden;fontSize=14;fontStyle=0;fontColor=#009900;" parent="1" vertex="1">
          <mxGeometry x="86.75" y="306" width="240" height="20" as="geometry" />
        </mxCell>
        <mxCell id="uWUnNED6HEl2aK5fdaIb-90" value="The main branch&lt;br&gt;" style="text;html=1;strokeColor=none;fillColor=none;align=left;verticalAlign=middle;whiteSpace=wrap;overflow=hidden;fontSize=14;fontStyle=0;fontColor=#009900;" parent="1" vertex="1">
          <mxGeometry x="88.25" y="220" width="146.75" height="20" as="geometry" />
        </mxCell>
        <mxCell id="uWUnNED6HEl2aK5fdaIb-93" value="" style="endArrow=classic;html=1;strokeWidth=1;fontFamily=Courier New;fontColor=#009900;" parent="1" edge="1">
          <mxGeometry width="50" height="50" relative="1" as="geometry">
            <mxPoint x="216.75" y="296" as="sourcePoint" />
            <mxPoint x="296.75" y="296" as="targetPoint" />
          </mxGeometry>
        </mxCell>
        <mxCell id="uWUnNED6HEl2aK5fdaIb-103" value="360e40d" style="text;html=1;strokeColor=none;fillColor=none;align=center;verticalAlign=middle;whiteSpace=wrap;overflow=hidden;fontSize=14;" parent="1" vertex="1">
          <mxGeometry x="242.25" y="170" width="70" height="20" as="geometry" />
        </mxCell>
        <mxCell id="9hBKPDzoitwpIBdzFDQ7-21" value="" style="edgeStyle=orthogonalEdgeStyle;rounded=0;orthogonalLoop=1;jettySize=auto;html=1;fontSize=15;endArrow=none;endFill=0;strokeWidth=4;entryX=0;entryY=0.5;entryDx=0;entryDy=0;entryPerimeter=0;" parent="1" edge="1">
          <mxGeometry relative="1" as="geometry">
            <mxPoint x="622.25" y="211" as="targetPoint" />
            <mxPoint x="482.25" y="211" as="sourcePoint" />
          </mxGeometry>
        </mxCell>
        <mxCell id="9hBKPDzoitwpIBdzFDQ7-61" value="929993" style="text;html=1;strokeColor=none;fillColor=none;align=center;verticalAlign=middle;whiteSpace=wrap;overflow=hidden;fontSize=14;" parent="1" vertex="1">
          <mxGeometry x="428.5" y="170" width="70" height="20" as="geometry" />
        </mxCell>
        <mxCell id="Ew93AZ5DGdFRE2sciLYH-3" value="5a95c45" style="text;html=1;strokeColor=none;fillColor=none;align=center;verticalAlign=middle;whiteSpace=wrap;overflow=hidden;fontSize=14;" vertex="1" parent="1">
          <mxGeometry x="319.75" y="256" width="70" height="20" as="geometry" />
        </mxCell>
        <mxCell id="Ew93AZ5DGdFRE2sciLYH-4" value="" style="verticalLabelPosition=bottom;verticalAlign=top;html=1;strokeWidth=4;shape=mxgraph.flowchart.on-page_reference;plain-blue;gradientColor=none;fillColor=#B5E3Fe;strokeColor=#000000;" vertex="1" parent="1">
          <mxGeometry x="452.25" y="196" width="30" height="30" as="geometry" />
        </mxCell>
        <mxCell id="Ew93AZ5DGdFRE2sciLYH-5" value="" style="verticalLabelPosition=bottom;verticalAlign=top;html=1;strokeWidth=4;shape=mxgraph.flowchart.on-page_reference;plain-blue;gradientColor=none;fillColor=#B5E3Fe;strokeColor=#000000;" vertex="1" parent="1">
          <mxGeometry x="620" y="196" width="30" height="30" as="geometry" />
        </mxCell>
        <mxCell id="Ew93AZ5DGdFRE2sciLYH-6" value="d10dd64" style="text;html=1;strokeColor=none;fillColor=none;align=center;verticalAlign=middle;whiteSpace=wrap;overflow=hidden;fontSize=14;" vertex="1" parent="1">
          <mxGeometry x="600" y="170" width="70" height="20" as="geometry" />
        </mxCell>
        <mxCell id="Ew93AZ5DGdFRE2sciLYH-7" value="&lt;b&gt;HEAD&lt;/b&gt;" style="html=1;verticalLabelPosition=bottom;labelBackgroundColor=#ffffff;verticalAlign=top;shadow=0;dashed=0;strokeWidth=2;shape=mxgraph.ios7.misc.up;strokeColor=#0080f0;" vertex="1" parent="1">
          <mxGeometry x="334.75" y="326" width="40" height="30" as="geometry" />
        </mxCell>
        <UserObject label="Estado Inicial (P0)" link="https://nvie.com/posts/a-successful-git-branching-model/" id="Ew93AZ5DGdFRE2sciLYH-8">
          <mxCell style="text;whiteSpace=wrap;html=1;fontStyle=1;fontSize=16;" vertex="1" parent="1">
            <mxGeometry x="78.63" y="80" width="427.75" height="20" as="geometry" />
          </mxCell>
        </UserObject>
        <mxCell id="Ew93AZ5DGdFRE2sciLYH-9" value="" style="edgeStyle=orthogonalEdgeStyle;rounded=0;html=1;jettySize=auto;orthogonalLoop=1;plain-blue;endArrow=none;endFill=0;strokeWidth=4;strokeColor=#000000;entryX=0;entryY=0.5;entryDx=0;entryDy=0;entryPerimeter=0;" edge="1" parent="1" source="Ew93AZ5DGdFRE2sciLYH-11">
          <mxGeometry x="308.12" y="521" as="geometry">
            <mxPoint x="468.12" y="521" as="targetPoint" />
          </mxGeometry>
        </mxCell>
        <mxCell id="Ew93AZ5DGdFRE2sciLYH-10" style="edgeStyle=orthogonalEdgeStyle;curved=1;rounded=0;html=1;exitX=1;exitY=0.5;exitPerimeter=0;entryX=0;entryY=0.5;entryPerimeter=0;endArrow=none;endFill=0;jettySize=auto;orthogonalLoop=1;strokeWidth=4;fontSize=15;" edge="1" parent="1" source="Ew93AZ5DGdFRE2sciLYH-11" target="Ew93AZ5DGdFRE2sciLYH-14">
          <mxGeometry relative="1" as="geometry" />
        </mxCell>
        <mxCell id="Ew93AZ5DGdFRE2sciLYH-11" value="" style="verticalLabelPosition=bottom;verticalAlign=top;html=1;strokeWidth=4;shape=mxgraph.flowchart.on-page_reference;plain-blue;gradientColor=none;fillColor=#B5E3Fe;strokeColor=#000000;" vertex="1" parent="1">
          <mxGeometry x="278.12" y="506" width="30" height="30" as="geometry" />
        </mxCell>
        <mxCell id="Ew93AZ5DGdFRE2sciLYH-12" value="" style="edgeStyle=orthogonalEdgeStyle;rounded=0;html=1;jettySize=auto;orthogonalLoop=1;strokeWidth=4;endArrow=none;endFill=0;" edge="1" parent="1" target="Ew93AZ5DGdFRE2sciLYH-11">
          <mxGeometry x="208.12" y="521" as="geometry">
            <mxPoint x="165.87" y="521" as="sourcePoint" />
          </mxGeometry>
        </mxCell>
        <mxCell id="Ew93AZ5DGdFRE2sciLYH-13" value="master" style="text;html=1;strokeColor=none;fillColor=none;align=center;verticalAlign=middle;whiteSpace=wrap;overflow=hidden;fontSize=14;fontStyle=1;fontFamily=Courier New;" vertex="1" parent="1">
          <mxGeometry x="98.87" y="500" width="50" height="42" as="geometry" />
        </mxCell>
        <mxCell id="Ew93AZ5DGdFRE2sciLYH-14" value="" style="verticalLabelPosition=bottom;verticalAlign=top;html=1;strokeWidth=4;shape=mxgraph.flowchart.on-page_reference;plain-purple;gradientColor=none;strokeColor=#000000;fillColor=#D5E8D4;" vertex="1" parent="1">
          <mxGeometry x="355.62" y="591" width="30" height="30" as="geometry" />
        </mxCell>
        <mxCell id="Ew93AZ5DGdFRE2sciLYH-15" value="idea" style="text;html=1;strokeColor=none;fillColor=none;align=left;verticalAlign=middle;whiteSpace=wrap;overflow=hidden;fontSize=14;fontStyle=1;fontFamily=Courier New;" vertex="1" parent="1">
          <mxGeometry x="104.62" y="596" width="240" height="20" as="geometry" />
        </mxCell>
        <mxCell id="Ew93AZ5DGdFRE2sciLYH-16" value="Primera rama creada" style="text;html=1;strokeColor=none;fillColor=none;align=left;verticalAlign=middle;whiteSpace=wrap;overflow=hidden;fontSize=14;fontStyle=0;fontColor=#009900;" vertex="1" parent="1">
          <mxGeometry x="102.62" y="616" width="240" height="20" as="geometry" />
        </mxCell>
        <mxCell id="Ew93AZ5DGdFRE2sciLYH-17" value="The main branch&lt;br&gt;" style="text;html=1;strokeColor=none;fillColor=none;align=left;verticalAlign=middle;whiteSpace=wrap;overflow=hidden;fontSize=14;fontStyle=0;fontColor=#009900;" vertex="1" parent="1">
          <mxGeometry x="104.12" y="530" width="146.75" height="20" as="geometry" />
        </mxCell>
        <mxCell id="Ew93AZ5DGdFRE2sciLYH-18" value="" style="endArrow=classic;html=1;strokeWidth=1;fontFamily=Courier New;fontColor=#009900;" edge="1" parent="1">
          <mxGeometry width="50" height="50" relative="1" as="geometry">
            <mxPoint x="232.62" y="606" as="sourcePoint" />
            <mxPoint x="312.62" y="606" as="targetPoint" />
          </mxGeometry>
        </mxCell>
        <mxCell id="Ew93AZ5DGdFRE2sciLYH-19" value="360e40d" style="text;html=1;strokeColor=none;fillColor=none;align=center;verticalAlign=middle;whiteSpace=wrap;overflow=hidden;fontSize=14;" vertex="1" parent="1">
          <mxGeometry x="258.12" y="480" width="70" height="20" as="geometry" />
        </mxCell>
        <mxCell id="Ew93AZ5DGdFRE2sciLYH-23" value="" style="edgeStyle=orthogonalEdgeStyle;rounded=0;orthogonalLoop=1;jettySize=auto;html=1;fontSize=15;endArrow=none;endFill=0;strokeWidth=4;entryX=0;entryY=0.5;entryDx=0;entryDy=0;entryPerimeter=0;" edge="1" parent="1">
          <mxGeometry relative="1" as="geometry">
            <mxPoint x="638.12" y="521" as="targetPoint" />
            <mxPoint x="498.12" y="521" as="sourcePoint" />
          </mxGeometry>
        </mxCell>
        <mxCell id="Ew93AZ5DGdFRE2sciLYH-24" value="929993" style="text;html=1;strokeColor=none;fillColor=none;align=center;verticalAlign=middle;whiteSpace=wrap;overflow=hidden;fontSize=14;" vertex="1" parent="1">
          <mxGeometry x="444.37" y="480" width="70" height="20" as="geometry" />
        </mxCell>
        <mxCell id="Ew93AZ5DGdFRE2sciLYH-25" value="5a95c45" style="text;html=1;strokeColor=none;fillColor=none;align=center;verticalAlign=middle;whiteSpace=wrap;overflow=hidden;fontSize=14;" vertex="1" parent="1">
          <mxGeometry x="335.62" y="566" width="70" height="20" as="geometry" />
        </mxCell>
        <mxCell id="Ew93AZ5DGdFRE2sciLYH-26" value="" style="verticalLabelPosition=bottom;verticalAlign=top;html=1;strokeWidth=4;shape=mxgraph.flowchart.on-page_reference;plain-blue;gradientColor=none;fillColor=#B5E3Fe;strokeColor=#000000;" vertex="1" parent="1">
          <mxGeometry x="468.12" y="506" width="30" height="30" as="geometry" />
        </mxCell>
        <mxCell id="Ew93AZ5DGdFRE2sciLYH-27" value="&lt;b&gt;HEAD&lt;/b&gt;" style="html=1;verticalLabelPosition=bottom;labelBackgroundColor=#ffffff;verticalAlign=top;shadow=0;dashed=0;strokeWidth=2;shape=mxgraph.ios7.misc.up;strokeColor=#0080f0;" vertex="1" parent="1">
          <mxGeometry x="334.75" y="710" width="40" height="30" as="geometry" />
        </mxCell>
        <UserObject label="&lt;a href=&quot;https://github.com/andres-benites-baviera/ejercicios-git/tree/master/conceptos_git&quot;&gt;ejercicios-git/conceptos_git at master · andres-benites-baviera/ejercicios-git · GitHub&lt;/a&gt;" link="https://github.com/andres-benites-baviera/ejercicios-git/tree/master/conceptos_git" id="Ew93AZ5DGdFRE2sciLYH-29">
          <mxCell style="text;whiteSpace=wrap;html=1;" vertex="1" parent="1">
            <mxGeometry x="82.25" width="515" height="20" as="geometry" />
          </mxCell>
        </UserObject>
        <mxCell id="Ew93AZ5DGdFRE2sciLYH-32" value="another-idea" style="text;html=1;strokeColor=none;fillColor=none;align=left;verticalAlign=middle;whiteSpace=wrap;overflow=hidden;fontSize=14;fontStyle=1;fontFamily=Courier New;" vertex="1" parent="1">
          <mxGeometry x="104.12" y="665" width="240" height="20" as="geometry" />
        </mxCell>
        <mxCell id="Ew93AZ5DGdFRE2sciLYH-33" value="Nueva rama" style="text;html=1;strokeColor=none;fillColor=none;align=left;verticalAlign=middle;whiteSpace=wrap;overflow=hidden;fontSize=14;fontStyle=0;fontColor=#009900;" vertex="1" parent="1">
          <mxGeometry x="104.12" y="690" width="240" height="20" as="geometry" />
        </mxCell>
        <mxCell id="Ew93AZ5DGdFRE2sciLYH-35" value="" style="shape=image;verticalLabelPosition=bottom;labelBackgroundColor=default;verticalAlign=top;aspect=fixed;imageAspect=0;image=data:image/svg+xml,PHN2ZyB4bWxucz0iaHR0cDovL3d3dy53My5vcmcvMjAwMC9zdmciIGlkPSJzdmc3MzAwIiB4bWw6c3BhY2U9InByZXNlcnZlIiBzdHJva2UtbGluZWpvaW49InJvdW5kIiBzdHJva2Utd2lkdGg9IjI4LjIyMiIgZmlsbC1ydWxlPSJldmVub2RkIiBwcmVzZXJ2ZUFzcGVjdFJhdGlvPSJ4TWlkWU1pZCIgdmlld0JveD0iMTA2MiAzMzY4LjE4MjYxNzE4NzUgMjc0NjIgMTIyNzAiIGhlaWdodD0iMTIyLjciIHdpZHRoPSIyNzQuNjIiIHZlcnNpb249IjEuMiI+PG1ldGFkYXRhIGlkPSJtZXRhZGF0YTczMDQiPmltYWdlL3N2Zyt4bWw8L21ldGFkYXRhPiYjeGE7IDxkZWZzIGlkPSJkZWZzNjcxMiIgY2xhc3M9IkNsaXBQYXRoR3JvdXAiPiYjeGE7ICA8Y2xpcFBhdGggY2xpcFBhdGhVbml0cz0idXNlclNwYWNlT25Vc2UiIGlkPSJwcmVzZW50YXRpb25fY2xpcF9wYXRoIj4mI3hhOyAgIDxyZWN0IGlkPSJyZWN0NjcwNiIgaGVpZ2h0PSIyMTAwMCIgd2lkdGg9IjI5NzAwIiB5PSIwIiB4PSIwIi8+JiN4YTsgIDwvY2xpcFBhdGg+JiN4YTsgIDxjbGlwUGF0aCBjbGlwUGF0aFVuaXRzPSJ1c2VyU3BhY2VPblVzZSIgaWQ9InByZXNlbnRhdGlvbl9jbGlwX3BhdGhfc2hyaW5rIj4mI3hhOyAgIDxyZWN0IGlkPSJyZWN0NjcwOSIgaGVpZ2h0PSIyMDk1OCIgd2lkdGg9IjI5NjQxIiB5PSIyMSIgeD0iMjkiLz4mI3hhOyAgPC9jbGlwUGF0aD4mI3hhOyAmI3hhOyAgJiN4YTsgJiN4YTsgICAmI3hhOyAgJiN4YTsgICAgJiN4YTsgICAmI3hhOyAgICAgJiN4YTsgICAgJiN4YTsgICAgICAmI3hhOyAgICAgICYjeGE7ICAgICAgJiN4YTsgICAgICAmI3hhOyAgICAgICYjeGE7ICAgICAgJiN4YTsgICAgICAmI3hhOyAgICAgICYjeGE7ICAgICAmI3hhOyAgICAgICAmI3hhOyAgICAgICYjeGE7ICAgICAgICYjeGE7ICAgICAgJiN4YTsgICAgICAgJiN4YTsgICAgICAmI3hhOyAgICAgICAmI3hhOyAgICAgICYjeGE7ICAgICAgICYjeGE7ICAgICAgJiN4YTsgICAgICAgJiN4YTsgICAgICAmI3hhOyAgICAgICAmI3hhOyAgICAgICYjeGE7ICAgICAgICYjeGE7ICAgICAgPC9kZWZzPiYjeGE7IDxkZWZzIGlkPSJkZWZzNjc4OSI+JiN4YTsgIDxmb250IGlkPSJFbWJlZGRlZEZvbnRfMSI+JiN4YTsgICAmI3hhOyAgICYjeGE7ICAgPGdseXBoIGlkPSJnbHlwaDY3MTgiIGQ9Ik0gODYwLDI4MSBMIDg0OSwwIDQxLDAgNDEsMzYgNjQ5LDg0NiAzNDksODQ2IEMgMjg0LDg0NiAyNDIsODQyIDIyMiw4MzQgMjAyLDgyNSAxODYsODA5IDE3Myw3ODYgMTU1LDc1MyAxNDUsNzExIDE0Miw2NjIgTCAxMDIsNjYyIDEwOCw5MTYgODc2LDkxNiA4NzYsODc5IDI2Miw2NyA1OTYsNjcgQyA2NjYsNjcgNzE0LDczIDczOSw4NSA3NjQsOTYgNzg0LDExNyA3OTksMTQ2IDgxMCwxNjcgODE5LDIxMiA4MjYsMjgxIFoiIHVuaWNvZGU9InoiLz4mI3hhOyAgIDxnbHlwaCBpZD0iZ2x5cGg2NzIwIiBkPSJNIDEyLDkxNiBMIDQzOSw5MTYgNDM5LDg3OSA0MTgsODc5IEMgMzg4LDg3OSAzNjYsODczIDM1MSw4NjAgMzM2LDg0NyAzMjgsODMwIDMyOCw4MTEgMzI4LDc4NSAzMzksNzQ5IDM2MSw3MDMgTCA1ODQsMjQxIDc4OSw3NDcgQyA4MDAsNzc0IDgwNiw4MDEgODA2LDgyOCA4MDYsODQwIDgwNCw4NDkgNzk5LDg1NSA3OTQsODYyIDc4NSw4NjggNzc0LDg3MyA3NjMsODc3IDc0Myw4NzkgNzE0LDg3OSBMIDcxNCw5MTYgMTAxMiw5MTYgMTAxMiw4NzkgQyA5ODcsODc2IDk2OCw4NzEgOTU1LDg2MyA5NDIsODU1IDkyNyw4NDAgOTExLDgxOCA5MDUsODA5IDg5NCw3ODMgODc3LDc0MSBMIDUwNCwtMTczIEMgNDY4LC0yNjIgNDIxLC0zMjkgMzYzLC0zNzQgMzA0LC00MTkgMjQ4LC00NDIgMTk0LC00NDIgMTU1LC00NDIgMTIyLC00MzEgOTcsLTQwOCA3MiwtMzg1IDU5LC0zNTkgNTksLTMzMCA1OSwtMzAyIDY4LC0yODAgODcsLTI2MyAxMDUsLTI0NiAxMzAsLTIzNyAxNjIsLTIzNyAxODQsLTIzNyAyMTQsLTI0NCAyNTIsLTI1OSAyNzksLTI2OSAyOTUsLTI3NCAzMDIsLTI3NCAzMjIsLTI3NCAzNDQsLTI2NCAzNjgsLTI0MyAzOTEsLTIyMiA0MTUsLTE4MiA0MzksLTEyMyBMIDUwNCwzNiAxNzUsNzI3IEMgMTY1LDc0OCAxNDksNzczIDEyNyw4MDQgMTEwLDgyNyA5Nyw4NDMgODYsODUxIDcxLDg2MiA0Niw4NzEgMTIsODc5IFoiIHVuaWNvZGU9InkiLz4mI3hhOyAgIDxnbHlwaCBpZD0iZ2x5cGg2NzIyIiBkPSJNIDI3LDkxNiBMIDQ1OCw5MTYgNDU4LDg3OSBDIDQzMSw4NzkgNDEyLDg3NCA0MDEsODY1IDM5MCw4NTYgMzg0LDg0MyAzODQsODI4IDM4NCw4MTIgMzk2LDc4NyA0MTksNzU0IDQyNiw3NDMgNDM3LDcyNyA0NTIsNzA0IEwgNTE3LDYwMCA1OTIsNzA0IEMgNjQwLDc3MCA2NjQsODEyIDY2NCw4MjkgNjY0LDg0MyA2NTgsODU1IDY0Nyw4NjUgNjM2LDg3NCA2MTcsODc5IDU5Miw4NzkgTCA1OTIsOTE2IDkwMiw5MTYgOTAyLDg3OSBDIDg2OSw4NzcgODQxLDg2OCA4MTcsODUyIDc4NCw4MjkgNzQwLDc4MCA2ODMsNzA0IEwgNTU4LDUzNyA3ODYsMjA5IEMgODQyLDEyOCA4ODIsODAgOTA2LDY0IDkzMCw0NyA5NjEsMzggOTk5LDM2IEwgOTk5LDAgNTY3LDAgNTY3LDM2IEMgNTk3LDM2IDYyMCw0MyA2MzcsNTYgNjUwLDY1IDY1Niw3OCA2NTYsOTMgNjU2LDEwOCA2MzUsMTQ3IDU5MiwyMDkgTCA0NTgsNDA1IDMxMSwyMDkgQyAyNjYsMTQ4IDI0MywxMTIgMjQzLDEwMSAyNDMsODUgMjUxLDcxIDI2Niw1OCAyODEsNDUgMzAzLDM3IDMzMywzNiBMIDMzMywwIDM0LDAgMzQsMzYgQyA1OCwzOSA3OSw0OCA5Nyw2MSAxMjIsODAgMTY1LDEzMCAyMjUsMjA5IEwgNDE3LDQ2NCAyNDMsNzE2IEMgMTk0LDc4OCAxNTYsODMzIDEyOSw4NTIgMTAyLDg3MCA2OCw4NzkgMjcsODc5IFoiIHVuaWNvZGU9IngiLz4mI3hhOyAgIDxnbHlwaCBpZD0iZ2x5cGg2NzI0IiBkPSJNIDg2Nyw5MTYgTCA4NjcsMzYxIEMgODY3LDI1NSA4NzAsMTkwIDg3NSwxNjcgODgwLDE0MyA4ODgsMTI2IDg5OSwxMTcgOTEwLDEwOCA5MjIsMTAzIDkzNywxMDMgOTU4LDEwMyA5ODEsMTA5IDEwMDcsMTIwIEwgMTAyMSw4NSA3NDcsLTI4IDcwMiwtMjggNzAyLDE2NiBDIDYyMyw4MSA1NjMsMjcgNTIyLDUgNDgxLC0xNyA0MzcsLTI4IDM5MSwtMjggMzQwLC0yOCAyOTUsLTEzIDI1OCwxNyAyMjAsNDYgMTk0LDg0IDE3OSwxMzEgMTY0LDE3OCAxNTcsMjQ0IDE1NywzMjkgTCAxNTcsNzM4IEMgMTU3LDc4MSAxNTIsODExIDE0Myw4MjggMTM0LDg0NSAxMjAsODU4IDEwMiw4NjcgODMsODc2IDUwLDg4MCAyLDg3OSBMIDIsOTE2IDMyMyw5MTYgMzIzLDMwMyBDIDMyMywyMTggMzM4LDE2MiAzNjgsMTM1IDM5NywxMDggNDMzLDk1IDQ3NSw5NSA1MDQsOTUgNTM2LDEwNCA1NzMsMTIyIDYwOSwxNDAgNjUyLDE3NCA3MDIsMjI1IEwgNzAyLDc0NCBDIDcwMiw3OTYgNjkzLDgzMSA2NzQsODUwIDY1NSw4NjggNjE1LDg3OCA1NTUsODc5IEwgNTU1LDkxNiBaIiB1bmljb2RlPSJ1Ii8+JiN4YTsgICA8Z2x5cGggaWQ9ImdseXBoNjcyNiIgZD0iTSAzMzAsMTIxNyBMIDMzMCw5MTYgNTQ0LDkxNiA1NDQsODQ2IDMzMCw4NDYgMzMwLDI1MiBDIDMzMCwxOTMgMzM5LDE1MyAzNTYsMTMyIDM3MywxMTEgMzk0LDEwMSA0MjEsMTAxIDQ0MywxMDEgNDY0LDEwOCA0ODUsMTIyIDUwNiwxMzUgNTIyLDE1NSA1MzMsMTgyIEwgNTcyLDE4MiBDIDU0OSwxMTcgNTE2LDY4IDQ3MywzNSA0MzAsMiAzODYsLTE1IDM0MSwtMTUgMzEwLC0xNSAyODAsLTcgMjUxLDExIDIyMiwyOCAyMDAsNTIgMTg2LDg0IDE3MiwxMTUgMTY1LDE2NCAxNjUsMjMwIEwgMTY1LDg0NiAyMCw4NDYgMjAsODc5IEMgNTcsODk0IDk0LDkxOSAxMzMsOTU0IDE3MSw5ODkgMjA1LDEwMzAgMjM1LDEwNzggMjUwLDExMDMgMjcyLDExNTAgMjk5LDEyMTcgWiIgdW5pY29kZT0idCIvPiYjeGE7ICAgPGdseXBoIGlkPSJnbHlwaDY3MjgiIGQ9Ik0gNjU2LDk0MyBMIDY1Niw2MzEgNjIzLDYzMSBDIDU5OCw3MjkgNTY1LDc5NiA1MjYsODMxIDQ4Niw4NjYgNDM1LDg4NCAzNzQsODg0IDMyNyw4ODQgMjkwLDg3MiAyNjEsODQ3IDIzMiw4MjIgMjE4LDc5NSAyMTgsNzY1IDIxOCw3MjggMjI5LDY5NiAyNTAsNjY5IDI3MSw2NDIgMzEzLDYxMyAzNzYsNTgyIEwgNTIyLDUxMSBDIDY1Nyw0NDUgNzI1LDM1OCA3MjUsMjUwIDcyNSwxNjcgNjk0LDEwMCA2MzEsNDkgNTY4LC0zIDQ5NywtMjggNDE5LC0yOCAzNjMsLTI4IDI5OSwtMTggMjI3LDIgMjA1LDkgMTg3LDEyIDE3MywxMiAxNTgsMTIgMTQ2LDMgMTM3LC0xNCBMIDEwNCwtMTQgMTA0LDMxMyAxMzcsMzEzIEMgMTU2LDIyMCAxOTEsMTQ5IDI0NCwxMDIgMjk3LDU1IDM1NiwzMSA0MjEsMzEgNDY3LDMxIDUwNSw0NSA1MzQsNzIgNTYzLDk5IDU3NywxMzEgNTc3LDE2OSA1NzcsMjE1IDU2MSwyNTQgNTI5LDI4NSA0OTYsMzE2IDQzMiwzNTYgMzM1LDQwNCAyMzgsNDUyIDE3NSw0OTUgMTQ1LDUzNCAxMTUsNTcyIDEwMCw2MjAgMTAwLDY3OCAxMDAsNzUzIDEyNiw4MTYgMTc4LDg2NyAyMjksOTE4IDI5Niw5NDMgMzc4LDk0MyA0MTQsOTQzIDQ1OCw5MzUgNTA5LDkyMCA1NDMsOTEwIDU2Niw5MDUgNTc3LDkwNSA1ODgsOTA1IDU5Niw5MDcgNjAyLDkxMiA2MDgsOTE3IDYxNSw5MjcgNjIzLDk0MyBaIiB1bmljb2RlPSJzIi8+JiN4YTsgICA8Z2x5cGggaWQ9ImdseXBoNjczMCIgZD0iTSAzMzIsOTQzIEwgMzMyLDczNyBDIDQwOSw4NzQgNDg3LDk0MyA1NjgsOTQzIDYwNSw5NDMgNjM1LDkzMiA2NTksOTEwIDY4Myw4ODcgNjk1LDg2MSA2OTUsODMyIDY5NSw4MDYgNjg2LDc4NCA2NjksNzY2IDY1Miw3NDggNjMxLDczOSA2MDcsNzM5IDU4NCw3MzkgNTU4LDc1MSA1MjksNzc0IDUwMCw3OTcgNDc4LDgwOCA0NjQsODA4IDQ1Miw4MDggNDM5LDgwMSA0MjUsNzg4IDM5NSw3NjEgMzY0LDcxNiAzMzIsNjUzIEwgMzMyLDIxNCBDIDMzMiwxNjMgMzM4LDEyNSAzNTEsOTkgMzYwLDgxIDM3NSw2NiAzOTcsNTQgNDE5LDQyIDQ1MSwzNiA0OTIsMzYgTCA0OTIsMCAyMywwIDIzLDM2IEMgNzAsMzYgMTA0LDQzIDEyNyw1OCAxNDQsNjkgMTU1LDg2IDE2MiwxMDkgMTY1LDEyMCAxNjcsMTUzIDE2NywyMDYgTCAxNjcsNTYxIEMgMTY3LDY2OCAxNjUsNzMxIDE2MSw3NTIgMTU2LDc3MiAxNDgsNzg3IDEzNyw3OTYgMTI1LDgwNSAxMTAsODEwIDkzLDgxMCA3Miw4MTAgNDksODA1IDIzLDc5NSBMIDEzLDgzMSAyOTAsOTQzIFoiIHVuaWNvZGU9InIiLz4mI3hhOyAgIDxnbHlwaCBpZD0iZ2x5cGg2NzMyIiBkPSJNIDUxMiw5NDMgQyA2NTEsOTQzIDc2Miw4OTAgODQ2LDc4NSA5MTcsNjk1IDk1Myw1OTIgOTUzLDQ3NSA5NTMsMzkzIDkzMywzMTAgODk0LDIyNiA4NTUsMTQyIDgwMSw3OSA3MzIsMzYgNjYzLC03IDU4NiwtMjggNTAxLC0yOCAzNjMsLTI4IDI1MywyNyAxNzIsMTM3IDEwMywyMzAgNjksMzM0IDY5LDQ0OSA2OSw1MzMgOTAsNjE3IDEzMiw3MDAgMTczLDc4MyAyMjgsODQ0IDI5Niw4ODQgMzY0LDkyMyA0MzYsOTQzIDUxMiw5NDMgWiBNIDQ4MSw4NzggQyA0NDYsODc4IDQxMCw4NjggMzc1LDg0NyAzMzksODI2IDMxMCw3ODkgMjg4LDczNiAyNjYsNjgzIDI1NSw2MTYgMjU1LDUzMyAyNTUsNDAwIDI4MiwyODUgMzM1LDE4OCAzODgsOTEgNDU3LDQzIDU0NCw0MyA2MDksNDMgNjYyLDcwIDcwNCwxMjMgNzQ2LDE3NiA3NjcsMjY4IDc2NywzOTggNzY3LDU2MSA3MzIsNjg5IDY2Miw3ODIgNjE1LDg0NiA1NTQsODc4IDQ4MSw4NzggWiIgdW5pY29kZT0ibyIvPiYjeGE7ICAgPGdseXBoIGlkPSJnbHlwaDY3MzQiIGQ9Ik0gMzMxLDc0OSBDIDQzOCw4NzggNTQxLDk0MyA2MzgsOTQzIDY4OCw5NDMgNzMxLDkzMSA3NjcsOTA2IDgwMyw4ODEgODMyLDgzOSA4NTMsNzgyIDg2OCw3NDIgODc1LDY4MSA4NzUsNTk4IEwgODc1LDIwNyBDIDg3NSwxNDkgODgwLDExMCA4ODksODkgODk2LDcyIDkwOCw1OSA5MjUsNTAgOTQxLDQxIDk3MSwzNiAxMDE1LDM2IEwgMTAxNSwwIDU2MiwwIDU2MiwzNiA1ODEsMzYgQyA2MjQsMzYgNjU0LDQzIDY3MSw1NiA2ODgsNjkgNjk5LDg4IDcwNiwxMTMgNzA5LDEyMyA3MTAsMTU0IDcxMCwyMDcgTCA3MTAsNTgyIEMgNzEwLDY2NSA2OTksNzI2IDY3OCw3NjQgNjU2LDgwMSA2MTksODIwIDU2OCw4MjAgNDg5LDgyMCA0MTAsNzc3IDMzMSw2OTAgTCAzMzEsMjA3IEMgMzMxLDE0NSAzMzUsMTA3IDM0Miw5MiAzNTEsNzMgMzY0LDU5IDM4MSw1MCAzOTcsNDEgNDMwLDM2IDQ4MCwzNiBMIDQ4MCwwIDI3LDAgMjcsMzYgNDcsMzYgQyA5NCwzNiAxMjUsNDggMTQyLDcyIDE1OCw5NSAxNjYsMTQwIDE2NiwyMDcgTCAxNjYsNTQ3IEMgMTY2LDY1NyAxNjQsNzI0IDE1OSw3NDggMTU0LDc3MiAxNDYsNzg4IDEzNiw3OTcgMTI1LDgwNiAxMTEsODEwIDk0LDgxMCA3NSw4MTAgNTMsODA1IDI3LDc5NSBMIDEyLDgzMSAyODgsOTQzIDMzMSw5NDMgWiIgdW5pY29kZT0ibiIvPiYjeGE7ICAgPGdseXBoIGlkPSJnbHlwaDY3MzYiIGQ9Ik0gMzM2LDc0OCBDIDQwMyw4MTUgNDQyLDg1MyA0NTQsODYzIDQ4NCw4ODggNTE2LDkwOCA1NTEsOTIyIDU4Niw5MzYgNjIwLDk0MyA2NTQsOTQzIDcxMSw5NDMgNzYxLDkyNiA4MDIsODkzIDg0Myw4NjAgODcxLDgxMSA4ODUsNzQ4IDk1NCw4MjggMTAxMiw4ODEgMTA1OSw5MDYgMTEwNiw5MzEgMTE1NSw5NDMgMTIwNSw5NDMgMTI1NCw5NDMgMTI5Nyw5MzEgMTMzNSw5MDYgMTM3Miw4ODEgMTQwMiw4NDAgMTQyNCw3ODMgMTQzOSw3NDQgMTQ0Niw2ODQgMTQ0Niw2MDEgTCAxNDQ2LDIwNyBDIDE0NDYsMTUwIDE0NTAsMTEwIDE0NTksODkgMTQ2Niw3NCAxNDc4LDYyIDE0OTYsNTIgMTUxNCw0MSAxNTQzLDM2IDE1ODQsMzYgTCAxNTg0LDAgMTEzMiwwIDExMzIsMzYgMTE1MSwzNiBDIDExOTAsMzYgMTIyMSw0NCAxMjQzLDU5IDEyNTgsNzAgMTI2OSw4NyAxMjc2LDExMCAxMjc5LDEyMSAxMjgwLDE1NCAxMjgwLDIwNyBMIDEyODAsNjAxIEMgMTI4MCw2NzYgMTI3MSw3MjggMTI1Myw3NTkgMTIyNyw4MDIgMTE4NSw4MjMgMTEyOCw4MjMgMTA5Myw4MjMgMTA1Nyw4MTQgMTAyMiw3OTcgOTg2LDc3OSA5NDMsNzQ2IDg5Miw2OTggTCA4OTAsNjg3IDg5Miw2NDQgODkyLDIwNyBDIDg5MiwxNDQgODk2LDEwNSA5MDMsOTAgOTEwLDc1IDkyMyw2MiA5NDIsNTIgOTYxLDQxIDk5NCwzNiAxMDQxLDM2IEwgMTA0MSwwIDU3OCwwIDU3OCwzNiBDIDYyOSwzNiA2NjQsNDIgNjgzLDU0IDcwMiw2NiA3MTUsODQgNzIyLDEwOCA3MjUsMTE5IDcyNywxNTIgNzI3LDIwNyBMIDcyNyw2MDEgQyA3MjcsNjc2IDcxNiw3MjkgNjk0LDc2MiA2NjUsODA1IDYyNCw4MjYgNTcxLDgyNiA1MzUsODI2IDQ5OSw4MTYgNDY0LDc5NyA0MDksNzY4IDM2Niw3MzUgMzM2LDY5OCBMIDMzNiwyMDcgQyAzMzYsMTQ3IDM0MCwxMDggMzQ5LDkwIDM1Nyw3MiAzNjksNTkgMzg2LDUwIDQwMiw0MSA0MzUsMzYgNDg1LDM2IEwgNDg1LDAgMzIsMCAzMiwzNiBDIDc0LDM2IDEwMyw0MSAxMjAsNTAgMTM3LDU5IDE0OSw3MyAxNTgsOTMgMTY3LDExMiAxNzEsMTUwIDE3MSwyMDcgTCAxNzEsNTU3IEMgMTcxLDY1OCAxNjgsNzIzIDE2Miw3NTIgMTU3LDc3NCAxNTAsNzg5IDE0MCw3OTggMTMwLDgwNiAxMTYsODEwIDk5LDgxMCA4MCw4MTAgNTgsODA1IDMyLDc5NSBMIDE3LDgzMSAyOTMsOTQzIDMzNiw5NDMgWiIgdW5pY29kZT0ibSIvPiYjeGE7ICAgPGdseXBoIGlkPSJnbHlwaDY3MzgiIGQ9Ik0gMzc5LDE0MjIgTCAzNzksMjA3IEMgMzc5LDE1MCAzODMsMTEyIDM5Miw5MyA0MDAsNzQgNDEzLDYwIDQzMCw1MSA0NDcsNDEgNDgwLDM2IDUyNywzNiBMIDUyNywwIDc4LDAgNzgsMzYgQyAxMjAsMzYgMTQ5LDQwIDE2NCw0OSAxNzksNTggMTkxLDcyIDIwMCw5MiAyMDksMTEyIDIxMywxNTAgMjEzLDIwNyBMIDIxMywxMDM5IEMgMjEzLDExNDIgMjExLDEyMDYgMjA2LDEyMzAgMjAxLDEyNTMgMTk0LDEyNjkgMTg0LDEyNzggMTczLDEyODcgMTYwLDEyOTEgMTQ0LDEyOTEgMTI3LDEyOTEgMTA1LDEyODYgNzgsMTI3NSBMIDYxLDEzMTAgMzM0LDE0MjIgWiIgdW5pY29kZT0ibCIvPiYjeGE7ICAgPGdseXBoIGlkPSJnbHlwaDY3NDAiIGQ9Ik0gMjk3LDE0MjIgQyAzMjUsMTQyMiAzNDksMTQxMiAzNjksMTM5MyAzODgsMTM3MyAzOTgsMTM0OSAzOTgsMTMyMSAzOTgsMTI5MyAzODgsMTI2OSAzNjksMTI0OSAzNDksMTIyOSAzMjUsMTIxOSAyOTcsMTIxOSAyNjksMTIxOSAyNDUsMTIyOSAyMjUsMTI0OSAyMDUsMTI2OSAxOTUsMTI5MyAxOTUsMTMyMSAxOTUsMTM0OSAyMDUsMTM3MyAyMjUsMTM5MyAyNDQsMTQxMiAyNjgsMTQyMiAyOTcsMTQyMiBaIE0gMzgwLDk0MyBMIDM4MCwyMDcgQyAzODAsMTUwIDM4NCwxMTIgMzkzLDkzIDQwMSw3NCA0MTMsNTkgNDMwLDUwIDQ0Niw0MSA0NzYsMzYgNTE5LDM2IEwgNTE5LDAgNzQsMCA3NCwzNiBDIDExOSwzNiAxNDksNDAgMTY0LDQ5IDE3OSw1OCAxOTIsNzIgMjAxLDkyIDIxMCwxMTIgMjE0LDE1MCAyMTQsMjA3IEwgMjE0LDU2MCBDIDIxNCw2NTkgMjExLDcyNCAyMDUsNzUzIDIwMCw3NzQgMTkzLDc4OSAxODMsNzk4IDE3Myw4MDYgMTU5LDgxMCAxNDIsODEwIDEyMyw4MTAgMTAxLDgwNSA3NCw3OTUgTCA2MCw4MzEgMzM2LDk0MyBaIiB1bmljb2RlPSJpIi8+JiN4YTsgICA8Z2x5cGggaWQ9ImdseXBoNjc0MiIgZD0iTSAzMzMsMTQyMiBMIDMzMyw3NTIgQyA0MDcsODMzIDQ2Niw4ODYgNTA5LDkwOSA1NTIsOTMyIDU5Niw5NDMgNjM5LDk0MyA2OTEsOTQzIDczNiw5MjkgNzczLDkwMCA4MTAsODcxIDgzOCw4MjYgODU2LDc2NSA4NjksNzIyIDg3NSw2NDQgODc1LDUzMSBMIDg3NSwyMDcgQyA4NzUsMTQ5IDg4MCwxMDkgODg5LDg4IDg5Niw3MiA5MDcsNTkgOTIzLDUwIDkzOSw0MSA5NjgsMzYgMTAxMSwzNiBMIDEwMTEsMCA1NjEsMCA1NjEsMzYgNTgyLDM2IEMgNjI1LDM2IDY1NCw0MyA2NzEsNTYgNjg4LDY5IDY5OSw4OCA3MDYsMTEzIDcwOCwxMjQgNzA5LDE1NSA3MDksMjA3IEwgNzA5LDUzMSBDIDcwOSw2MzEgNzA0LDY5NyA2OTQsNzI4IDY4Myw3NTkgNjY3LDc4MyA2NDQsNzk5IDYyMSw4MTQgNTk0LDgyMiA1NjIsODIyIDUyOSw4MjIgNDk1LDgxMyA0NjAsNzk2IDQyNSw3NzkgMzgyLDc0NCAzMzMsNjkxIEwgMzMzLDIwNyBDIDMzMywxNDQgMzM3LDEwNSAzNDQsOTAgMzUxLDc1IDM2NCw2MiAzODMsNTIgNDAyLDQxIDQzNCwzNiA0ODEsMzYgTCA0ODEsMCAyNywwIDI3LDM2IEMgNjgsMzYgMTAwLDQyIDEyMyw1NSAxMzYsNjIgMTQ3LDc0IDE1NSw5MyAxNjMsMTEyIDE2NywxNTAgMTY3LDIwNyBMIDE2NywxMDM2IEMgMTY3LDExNDEgMTY1LDEyMDUgMTYwLDEyMjkgMTU1LDEyNTMgMTQ3LDEyNjkgMTM3LDEyNzggMTI2LDEyODcgMTEyLDEyOTEgOTUsMTI5MSA4MSwxMjkxIDU4LDEyODYgMjcsMTI3NSBMIDEzLDEzMTAgMjg3LDE0MjIgWiIgdW5pY29kZT0iaCIvPiYjeGE7ICAgPGdseXBoIGlkPSJnbHlwaDY3NDQiIGQ9Ik0gMzA5LDMzNCBDIDI1MywzNjEgMjEwLDQwMCAxODAsNDQ5IDE1MCw0OTggMTM1LDU1MiAxMzUsNjExIDEzNSw3MDIgMTY5LDc4MCAyMzgsODQ1IDMwNiw5MTAgMzkzLDk0MyA1MDAsOTQzIDU4Nyw5NDMgNjYzLDkyMiA3MjcsODc5IEwgOTIxLDg3OSBDIDk1MCw4NzkgOTY2LDg3OCA5NzEsODc3IDk3Niw4NzUgOTc5LDg3MiA5ODEsODY4IDk4NSw4NjIgOTg3LDg1MSA5ODcsODM2IDk4Nyw4MTkgOTg1LDgwNyA5ODIsODAwIDk4MCw3OTcgOTc3LDc5NCA5NzIsNzkyIDk2Nyw3OTAgOTUwLDc4OSA5MjEsNzg5IEwgODAyLDc4OSBDIDgzOSw3NDEgODU4LDY4MCA4NTgsNjA1IDg1OCw1MjAgODI1LDQ0NyA3NjAsMzg2IDY5NSwzMjUgNjA3LDI5NSA0OTcsMjk1IDQ1MiwyOTUgNDA1LDMwMiAzNTgsMzE1IDMyOSwyOTAgMzA5LDI2OCAyOTksMjQ5IDI4OCwyMzAgMjgzLDIxMyAyODMsMjAwIDI4MywxODkgMjg5LDE3OCAzMDAsMTY3IDMxMSwxNTYgMzMyLDE0OSAzNjQsMTQ0IDM4MywxNDEgNDI5LDEzOSA1MDQsMTM3IDY0MSwxMzQgNzMwLDEyOSA3NzEsMTIzIDgzMywxMTQgODgzLDkxIDkyMCw1NCA5NTcsMTcgOTc1LC0yOSA5NzUsLTg0IDk3NSwtMTU5IDk0MCwtMjMwIDg2OSwtMjk2IDc2NSwtMzkzIDYyOSwtNDQyIDQ2MiwtNDQyIDMzMywtNDQyIDIyNSwtNDEzIDEzNiwtMzU1IDg2LC0zMjIgNjEsLTI4NyA2MSwtMjUxIDYxLC0yMzUgNjUsLTIxOSA3MiwtMjAzIDgzLC0xNzggMTA3LC0xNDQgMTQyLC0xMDAgMTQ3LC05NCAxODEsLTU4IDI0NCw4IDIwOSwyOSAxODUsNDcgMTcxLDY0IDE1Niw4MCAxNDksOTggMTQ5LDExOSAxNDksMTQyIDE1OSwxNzAgMTc4LDIwMSAxOTcsMjMyIDI0MCwyNzcgMzA5LDMzNCBaIE0gNDgzLDg5NSBDIDQzNCw4OTUgMzkyLDg3NSAzNTksODM2IDMyNiw3OTcgMzA5LDczNiAzMDksNjU1IDMwOSw1NTAgMzMyLDQ2OCAzNzcsNDEwIDQxMiwzNjYgNDU2LDM0NCA1MDksMzQ0IDU2MCwzNDQgNjAxLDM2MyA2MzQsNDAxIDY2Nyw0MzkgNjgzLDQ5OSA2ODMsNTgwIDY4Myw2ODYgNjYwLDc2OSA2MTQsODI5IDU4MCw4NzMgNTM2LDg5NSA0ODMsODk1IFogTSAyOTksMCBDIDI2OCwtMzQgMjQ0LC02NiAyMjgsLTk1IDIxMiwtMTI0IDIwNCwtMTUxIDIwNCwtMTc2IDIwNCwtMjA4IDIyMywtMjM2IDI2MiwtMjYwIDMyOSwtMzAxIDQyNSwtMzIyIDU1MSwtMzIyIDY3MSwtMzIyIDc2MCwtMzAxIDgxNywtMjU5IDg3NCwtMjE2IDkwMiwtMTcxIDkwMiwtMTIzIDkwMiwtODggODg1LC02NCA4NTEsLTQ5IDgxNiwtMzQgNzQ4LC0yNiA2NDUsLTIzIDQ5NSwtMTkgMzgwLC0xMSAyOTksMCBaIiB1bmljb2RlPSJnIi8+JiN4YTsgICA8Z2x5cGggaWQ9ImdseXBoNjc0NiIgZD0iTSAyMTgsNTcxIEMgMjE3LDQzNSAyNTAsMzI4IDMxNywyNTEgMzg0LDE3NCA0NjIsMTM1IDU1MiwxMzUgNjEyLDEzNSA2NjQsMTUyIDcwOSwxODUgNzUzLDIxOCA3OTAsMjc0IDgyMCwzNTQgTCA4NTEsMzM0IEMgODM3LDI0MyA3OTYsMTYwIDcyOSw4NSA2NjIsMTAgNTc3LC0yOCA0NzYsLTI4IDM2NiwtMjggMjcyLDE1IDE5NCwxMDEgMTE1LDE4NiA3NiwzMDEgNzYsNDQ2IDc2LDYwMyAxMTYsNzI1IDE5Nyw4MTMgMjc3LDkwMCAzNzgsOTQ0IDQ5OSw5NDQgNjAyLDk0NCA2ODYsOTEwIDc1Miw4NDMgODE4LDc3NSA4NTEsNjg0IDg1MSw1NzEgWiBNIDIxOCw2MjkgTCA2NDIsNjI5IEMgNjM5LDY4OCA2MzIsNzI5IDYyMSw3NTMgNjA0LDc5MCA1ODAsODIwIDU0Nyw4NDEgNTE0LDg2MiA0NzksODczIDQ0Myw4NzMgMzg4LDg3MyAzMzgsODUyIDI5NSw4MDkgMjUxLDc2NiAyMjUsNzA2IDIxOCw2MjkgWiIgdW5pY29kZT0iZSIvPiYjeGE7ICAgPGdseXBoIGlkPSJnbHlwaDY3NDgiIGQ9Ik0gNzExLDEwMyBDIDY2Niw1NiA2MjMsMjMgNTgwLDMgNTM3LC0xOCA0OTEsLTI4IDQ0MiwtMjggMzQyLC0yOCAyNTUsMTQgMTgwLDk4IDEwNSwxODEgNjgsMjg5IDY4LDQyMCA2OCw1NTEgMTA5LDY3MiAxOTIsNzgxIDI3NSw4OTAgMzgxLDk0NCA1MTEsOTQ0IDU5Miw5NDQgNjU4LDkxOCA3MTEsODY3IEwgNzExLDEwMzYgQyA3MTEsMTE0MSA3MDksMTIwNSA3MDQsMTIyOSA2OTksMTI1MyA2OTEsMTI2OSA2ODAsMTI3OCA2NjksMTI4NyA2NTYsMTI5MSA2NDAsMTI5MSA2MjMsMTI5MSA2MDAsMTI4NiA1NzEsMTI3NSBMIDU1OCwxMzEwIDgzMSwxNDIyIDg3NiwxNDIyIDg3NiwzNjMgQyA4NzYsMjU2IDg3OSwxOTAgODg0LDE2NyA4ODksMTQzIDg5NywxMjYgOTA4LDExNyA5MTksMTA4IDkzMSwxMDMgOTQ2LDEwMyA5NjQsMTAzIDk4OCwxMDkgMTAxOCwxMjAgTCAxMDI5LDg1IDc1NywtMjggNzExLC0yOCBaIE0gNzExLDE3MyBMIDcxMSw2NDUgQyA3MDcsNjkwIDY5NSw3MzIgNjc1LDc2OSA2NTUsODA2IDYyOSw4MzUgNTk2LDg1NCA1NjMsODczIDUzMCw4ODIgNDk5LDg4MiA0NDAsODgyIDM4OCw4NTYgMzQyLDgwMyAyODEsNzM0IDI1MSw2MzIgMjUxLDQ5OSAyNTEsMzY0IDI4MCwyNjEgMzM5LDE5MCAzOTgsMTE4IDQ2Myw4MiA1MzUsODIgNTk2LDgyIDY1NCwxMTIgNzExLDE3MyBaIiB1bmljb2RlPSJkIi8+JiN4YTsgICA8Z2x5cGggaWQ9ImdseXBoNjc1MCIgZD0iTSA4NDIsMzQ4IEMgODE3LDIyNyA3NjksMTM1IDY5Nyw3MCA2MjUsNSA1NDUsLTI4IDQ1OCwtMjggMzU0LC0yOCAyNjMsMTYgMTg2LDEwMyAxMDksMTkwIDcwLDMwOCA3MCw0NTcgNzAsNjAxIDExMyw3MTggMTk5LDgwOCAyODQsODk4IDM4Nyw5NDMgNTA3LDk0MyA1OTcsOTQzIDY3MSw5MTkgNzI5LDg3MiA3ODcsODI0IDgxNiw3NzQgODE2LDcyMyA4MTYsNjk4IDgwOCw2NzcgNzkyLDY2MiA3NzUsNjQ2IDc1Miw2MzggNzIzLDYzOCA2ODQsNjM4IDY1NCw2NTEgNjM0LDY3NiA2MjMsNjkwIDYxNSw3MTcgNjEyLDc1NiA2MDgsNzk1IDU5NCw4MjUgNTcxLDg0NiA1NDgsODY2IDUxNSw4NzYgNDc0LDg3NiA0MDcsODc2IDM1NCw4NTEgMzEzLDgwMiAyNTksNzM3IDIzMiw2NTAgMjMyLDU0MyAyMzIsNDM0IDI1OSwzMzcgMzEzLDI1NCAzNjYsMTcwIDQzOSwxMjggNTMwLDEyOCA1OTUsMTI4IDY1NCwxNTAgNzA2LDE5NSA3NDMsMjI2IDc3OCwyODEgODEzLDM2MiBaIiB1bmljb2RlPSJjIi8+JiN4YTsgICA8Z2x5cGggaWQ9ImdseXBoNjc1MiIgZD0iTSAzMTUsNzU4IEMgNDA0LDg4MSA0OTksOTQzIDYwMiw5NDMgNjk2LDk0MyA3NzgsOTAzIDg0OCw4MjMgOTE4LDc0MiA5NTMsNjMyIDk1Myw0OTMgOTUzLDMzMCA4OTksMTk5IDc5MSwxMDAgNjk4LDE1IDU5NSwtMjggNDgxLC0yOCA0MjgsLTI4IDM3NCwtMTggMzE5LDEgMjY0LDIwIDIwNyw0OSAxNTAsODggTCAxNTAsMTAzNyBDIDE1MCwxMTQxIDE0OCwxMjA1IDE0MywxMjI5IDEzOCwxMjUzIDEzMCwxMjY5IDExOSwxMjc4IDEwOCwxMjg3IDk1LDEyOTEgNzksMTI5MSA2MCwxMjkxIDM3LDEyODYgOSwxMjc1IEwgLTUsMTMxMCAyNzAsMTQyMiAzMTUsMTQyMiBaIE0gMzE1LDY5NCBMIDMxNSwxNDYgQyAzNDksMTEzIDM4NCw4OCA0MjEsNzEgNDU3LDU0IDQ5NCw0NSA1MzIsNDUgNTkzLDQ1IDY0OSw3OCA3MDIsMTQ1IDc1NCwyMTIgNzgwLDMwOSA3ODAsNDM2IDc4MCw1NTMgNzU0LDY0NCA3MDIsNzA3IDY0OSw3NzAgNTkwLDgwMSA1MjMsODAxIDQ4OCw4MDEgNDUyLDc5MiA0MTcsNzc0IDM5MCw3NjEgMzU2LDczNCAzMTUsNjk0IFoiIHVuaWNvZGU9ImIiLz4mI3hhOyAgIDxnbHlwaCBpZD0iZ2x5cGg2NzU0IiBkPSJNIDU4MywxMzIgQyA0ODksNTkgNDMwLDE3IDQwNiw2IDM3MCwtMTEgMzMyLC0xOSAyOTEsLTE5IDIyOCwtMTkgMTc2LDMgMTM1LDQ2IDk0LDg5IDczLDE0NiA3MywyMTcgNzMsMjYyIDgzLDMwMCAxMDMsMzMzIDEzMCwzNzggMTc4LDQyMSAyNDYsNDYxIDMxMyw1MDEgNDI2LDU1MCA1ODMsNjA3IEwgNTgzLDY0MyBDIDU4Myw3MzQgNTY5LDc5NyA1NDAsODMxIDUxMSw4NjUgNDY4LDg4MiA0MTMsODgyIDM3MSw4ODIgMzM4LDg3MSAzMTMsODQ4IDI4OCw4MjUgMjc1LDc5OSAyNzUsNzcwIEwgMjc3LDcxMiBDIDI3Nyw2ODEgMjY5LDY1OCAyNTQsNjQxIDIzOCw2MjQgMjE3LDYxNiAxOTIsNjE2IDE2Nyw2MTYgMTQ3LDYyNSAxMzIsNjQyIDExNiw2NTkgMTA4LDY4MyAxMDgsNzEzIDEwOCw3NzAgMTM3LDgyMyAxOTYsODcxIDI1NSw5MTkgMzM3LDk0MyA0NDMsOTQzIDUyNCw5NDMgNTkxLDkyOSA2NDMsOTAyIDY4Miw4ODEgNzExLDg0OSA3MzAsODA1IDc0Miw3NzYgNzQ4LDcxOCA3NDgsNjI5IEwgNzQ4LDMxOCBDIDc0OCwyMzEgNzUwLDE3NyA3NTMsMTU4IDc1NiwxMzggNzYyLDEyNSA3NzAsMTE4IDc3NywxMTEgNzg2LDEwOCA3OTYsMTA4IDgwNywxMDggODE2LDExMCA4MjQsMTE1IDgzOCwxMjQgODY1LDE0OCA5MDUsMTg4IEwgOTA1LDEzMiBDIDgzMCwzMiA3NTksLTE4IDY5MSwtMTggNjU4LC0xOCA2MzIsLTcgNjEzLDE2IDU5NCwzOSA1ODQsNzcgNTgzLDEzMiBaIE0gNTgzLDE5NyBMIDU4Myw1NDYgQyA0ODIsNTA2IDQxNyw0NzggMzg4LDQ2MSAzMzUsNDMyIDI5OCw0MDEgMjc1LDM2OSAyNTIsMzM3IDI0MSwzMDIgMjQxLDI2NCAyNDEsMjE2IDI1NSwxNzYgMjg0LDE0NSAzMTMsMTEzIDM0Niw5NyAzODMsOTcgNDM0LDk3IDUwMCwxMzAgNTgzLDE5NyBaIiB1bmljb2RlPSJhIi8+JiN4YTsgICA8Z2x5cGggaWQ9ImdseXBoNjc1NiIgZD0iTSA2MzIsMzcgTCA2MzIsMCA1MSwwIDUxLDM3IDk5LDM3IEMgMTU1LDM3IDE5Niw1MyAyMjEsODYgMjM3LDEwNyAyNDUsMTU5IDI0NSwyNDAgTCAyNDUsMTExNiBDIDI0NSwxMTg1IDI0MSwxMjMwIDIzMiwxMjUyIDIyNSwxMjY5IDIxMiwxMjgzIDE5MSwxMjk1IDE2MiwxMzExIDEzMSwxMzE5IDk5LDEzMTkgTCA1MSwxMzE5IDUxLDEzNTYgNjMyLDEzNTYgNjMyLDEzMTkgNTgzLDEzMTkgQyA1MjgsMTMxOSA0ODcsMTMwMyA0NjIsMTI3MCA0NDUsMTI0OSA0MzcsMTE5NyA0MzcsMTExNiBMIDQzNywyNDAgQyA0MzcsMTcxIDQ0MSwxMjYgNDUwLDEwNCA0NTcsODcgNDcxLDczIDQ5Miw2MSA1MjEsNDUgNTUxLDM3IDU4MywzNyBaIiB1bmljb2RlPSJJIi8+JiN4YTsgICA8Z2x5cGggaWQ9ImdseXBoNjc1OCIgZD0iTSA0MTksMTI4MiBMIDQxOSw3NDkgNjY2LDc0OSBDIDcyMyw3NDkgNzY0LDc2MiA3OTEsNzg3IDgxNyw4MTIgODM0LDg2MSA4NDMsOTM1IEwgODgwLDkzNSA4ODAsNDc2IDg0Myw0NzYgQyA4NDIsNTI5IDgzNiw1NjcgODIzLDU5MiA4MTAsNjE3IDc5Miw2MzUgNzY5LDY0OCA3NDYsNjYwIDcxMSw2NjYgNjY2LDY2NiBMIDQxOSw2NjYgNDE5LDI0MCBDIDQxOSwxNzEgNDIzLDEyNiA0MzIsMTA0IDQzOSw4NyA0NTMsNzMgNDc0LDYxIDUwMyw0NSA1MzQsMzcgNTY2LDM3IEwgNjE1LDM3IDYxNSwwIDMzLDAgMzMsMzcgODEsMzcgQyAxMzcsMzcgMTc4LDUzIDIwMyw4NiAyMTksMTA3IDIyNywxNTkgMjI3LDI0MCBMIDIyNywxMTE2IEMgMjI3LDExODUgMjIzLDEyMzAgMjE0LDEyNTIgMjA3LDEyNjkgMTk0LDEyODMgMTczLDEyOTUgMTQ0LDEzMTEgMTE0LDEzMTkgODEsMTMxOSBMIDMzLDEzMTkgMzMsMTM1NiAxMDQyLDEzNTYgMTA1NSwxMDU4IDEwMjAsMTA1OCBDIDEwMDMsMTEyMSA5ODMsMTE2OCA5NjAsMTE5OCA5MzcsMTIyNyA5MDgsMTI0OSA4NzUsMTI2MiA4NDEsMTI3NSA3ODksMTI4MiA3MTgsMTI4MiBaIiB1bmljb2RlPSJGIi8+JiN4YTsgICA8Z2x5cGggaWQ9ImdseXBoNjc2MCIgZD0iTSAxMjMzLDEzODcgTCAxMjY0LDkyNiAxMjMzLDkyNiBDIDExOTIsMTA2NCAxMTMzLDExNjMgMTA1NiwxMjI0IDk3OSwxMjg1IDg4NywxMzE1IDc4MCwxMzE1IDY5MCwxMzE1IDYwOSwxMjkyIDUzNiwxMjQ3IDQ2MywxMjAxIDQwNiwxMTI4IDM2NSwxMDI4IDMyMyw5MjggMzAyLDgwNCAzMDIsNjU1IDMwMiw1MzIgMzIyLDQyNiAzNjEsMzM2IDQwMCwyNDYgNDYwLDE3NyA1MzksMTI5IDYxOCw4MSA3MDgsNTcgODA5LDU3IDg5Nyw1NyA5NzUsNzYgMTA0MiwxMTQgMTEwOSwxNTEgMTE4MywyMjYgMTI2NCwzMzggTCAxMjk1LDMxOCBDIDEyMjcsMTk3IDExNDgsMTA5IDEwNTcsNTMgOTY2LC0zIDg1OSwtMzEgNzM0LC0zMSA1MDksLTMxIDMzNSw1MiAyMTIsMjE5IDEyMCwzNDMgNzQsNDg5IDc0LDY1NyA3NCw3OTIgMTA0LDkxNyAxNjUsMTAzMCAyMjYsMTE0MyAzMDksMTIzMSA0MTYsMTI5NCA1MjIsMTM1NiA2MzgsMTM4NyA3NjQsMTM4NyA4NjIsMTM4NyA5NTksMTM2MyAxMDU0LDEzMTUgMTA4MiwxMzAwIDExMDIsMTI5MyAxMTE0LDEyOTMgMTEzMiwxMjkzIDExNDgsMTI5OSAxMTYxLDEzMTIgMTE3OCwxMzMwIDExOTEsMTM1NSAxMTk4LDEzODcgWiIgdW5pY29kZT0iQyIvPiYjeGE7ICAgPGdseXBoIGlkPSJnbHlwaDY3NjIiIGQ9Ik0gOTM3LDQ1NCBMIDQxMiw0NTQgMzIwLDI0MCBDIDI5NywxODcgMjg2LDE0OCAyODYsMTIyIDI4NiwxMDEgMjk2LDgzIDMxNiw2OCAzMzUsNTIgMzc4LDQyIDQ0MywzNyBMIDQ0MywwIDE2LDAgMTYsMzcgQyA3Myw0NyAxMDksNjAgMTI2LDc2IDE2MCwxMDggMTk4LDE3MyAyMzksMjcxIEwgNzE2LDEzODcgNzUxLDEzODcgMTIyMywyNTkgQyAxMjYxLDE2OCAxMjk2LDExMCAxMzI3LDgzIDEzNTgsNTYgMTQwMSw0MCAxNDU2LDM3IEwgMTQ1NiwwIDkyMSwwIDkyMSwzNyBDIDk3NSw0MCAxMDEyLDQ5IDEwMzEsNjQgMTA1MCw3OSAxMDU5LDk4IDEwNTksMTIwIDEwNTksMTQ5IDEwNDYsMTk2IDEwMTksMjU5IFogTSA5MDksNTI4IEwgNjc5LDEwNzYgNDQzLDUyOCBaIiB1bmljb2RlPSJBIi8+JiN4YTsgICA8Z2x5cGggaWQ9ImdseXBoNjc2NCIgZD0iTSAyODksOTQ0IEMgMzIwLDk0NCAzNDYsOTMzIDM2OCw5MTIgMzg5LDg5MCA0MDAsODY0IDQwMCw4MzMgNDAwLDgwMiAzODksNzc2IDM2OCw3NTUgMzQ2LDczMyAzMjAsNzIyIDI4OSw3MjIgMjU4LDcyMiAyMzIsNzMzIDIxMSw3NTUgMTg5LDc3NiAxNzgsODAyIDE3OCw4MzMgMTc4LDg2NCAxODksODkwIDIxMSw5MTIgMjMyLDkzMyAyNTgsOTQ0IDI4OSw5NDQgWiBNIDI4NywxOTUgQyAzMTgsMTk1IDM0NSwxODQgMzY3LDE2MiAzODgsMTQwIDM5OSwxMTQgMzk5LDgzIDM5OSw1MiAzODgsMjYgMzY2LDUgMzQ0LC0xNyAzMTgsLTI4IDI4NywtMjggMjU2LC0yOCAyMzAsLTE3IDIwOSw1IDE4NywyNiAxNzYsNTIgMTc2LDgzIDE3NiwxMTQgMTg3LDE0MCAyMDksMTYyIDIzMCwxODQgMjU2LDE5NSAyODcsMTk1IFoiIHVuaWNvZGU9IjoiLz4mI3hhOyAgIDxnbHlwaCBpZD0iZ2x5cGg2NzY2IiBkPSJNIDEwOCwtMjggTCAxMDgsOSBDIDE5NSwxMCAyNzUsMzEgMzUwLDcwIDQyNSwxMDkgNDk3LDE3NyA1NjcsMjc0IDYzNiwzNzEgNjg1LDQ3OCA3MTIsNTk1IDYwNyw1MjggNTEzLDQ5NCA0MjgsNDk0IDMzMyw0OTQgMjUxLDUzMSAxODMsNjA1IDExNSw2NzggODEsNzc2IDgxLDg5OCA4MSwxMDE3IDExNSwxMTIyIDE4MywxMjE1IDI2NSwxMzI4IDM3MiwxMzg0IDUwNCwxMzg0IDYxNSwxMzg0IDcxMSwxMzM4IDc5MCwxMjQ2IDg4NywxMTMyIDkzNiw5OTEgOTM2LDgyNCA5MzYsNjczIDg5OSw1MzMgODI1LDQwMyA3NTEsMjcyIDY0OCwxNjQgNTE2LDc4IDQwOSw3IDI5MiwtMjggMTY1LC0yOCBaIE0gNzI4LDY2OSBDIDc0MCw3NTYgNzQ2LDgyNSA3NDYsODc3IDc0Niw5NDIgNzM1LDEwMTIgNzEzLDEwODcgNjkxLDExNjIgNjYwLDEyMTkgNjIwLDEyNTkgNTc5LDEyOTkgNTMzLDEzMTkgNDgyLDEzMTkgNDIzLDEzMTkgMzcxLDEyOTIgMzI2LDEyMzkgMjgxLDExODYgMjU5LDExMDYgMjU5LDEwMDEgMjU5LDg2MCAyODksNzUwIDM0OCw2NzEgMzkxLDYxNCA0NDUsNTg1IDUwOCw1ODUgNTM5LDU4NSA1NzUsNTkyIDYxNyw2MDcgNjU5LDYyMiA2OTYsNjQyIDcyOCw2NjkgWiIgdW5pY29kZT0iOSIvPiYjeGE7ICAgPGdseXBoIGlkPSJnbHlwaDY3NjgiIGQ9Ik0gMjA2LDEzNTYgTCA5MzMsMTM1NiA5MzMsMTMxOCA0ODEsLTI4IDM2OSwtMjggNzc0LDExOTMgNDAxLDExOTMgQyAzMjYsMTE5MyAyNzIsMTE4NCAyNDAsMTE2NiAxODQsMTEzNSAxMzksMTA4OCAxMDUsMTAyNCBMIDc2LDEwMzUgWiIgdW5pY29kZT0iNyIvPiYjeGE7ICAgPGdseXBoIGlkPSJnbHlwaDY3NzAiIGQ9Ik0gOTE4LDEzODQgTCA5MTgsMTM0NyBDIDgzMCwxMzM4IDc1OCwxMzIxIDcwMywxMjk1IDY0NywxMjY4IDU5MiwxMjI4IDUzOCwxMTc0IDQ4MywxMTIwIDQzOCwxMDYwIDQwMyw5OTQgMzY3LDkyNyAzMzcsODQ4IDMxMyw3NTcgNDA5LDgyMyA1MDUsODU2IDYwMiw4NTYgNjk1LDg1NiA3NzUsODE5IDg0Myw3NDQgOTExLDY2OSA5NDUsNTczIDk0NSw0NTYgOTQ1LDM0MyA5MTEsMjM5IDg0MiwxNDYgNzU5LDMzIDY1MCwtMjQgNTE0LC0yNCA0MjEsLTI0IDM0Myw3IDI3OCw2OCAxNTEsMTg3IDg4LDM0MiA4OCw1MzIgODgsNjUzIDExMiw3NjkgMTYxLDg3OCAyMTAsOTg3IDI3OSwxMDg0IDM3MCwxMTY5IDQ2MCwxMjU0IDU0NiwxMzExIDYyOSwxMzQwIDcxMiwxMzY5IDc4OSwxMzg0IDg2MCwxMzg0IFogTSAyOTYsNjg0IEMgMjg0LDU5NCAyNzgsNTIxIDI3OCw0NjYgMjc4LDQwMiAyOTAsMzMzIDMxNCwyNTggMzM3LDE4MyAzNzIsMTIzIDQxOSw3OSA0NTMsNDggNDk0LDMyIDU0MywzMiA2MDEsMzIgNjUzLDU5IDY5OSwxMTQgNzQ0LDE2OSA3NjcsMjQ3IDc2NywzNDggNzY3LDQ2MiA3NDQsNTYxIDY5OSw2NDQgNjU0LDcyNyA1ODksNzY5IDUwNiw3NjkgNDgxLDc2OSA0NTQsNzY0IDQyNSw3NTMgMzk2LDc0MiAzNTMsNzE5IDI5Niw2ODQgWiIgdW5pY29kZT0iNiIvPiYjeGE7ICAgPGdseXBoIGlkPSJnbHlwaDY3NzIiIGQ9Ik0gODg5LDEzNTYgTCA4MTEsMTE4NiA0MDMsMTE4NiAzMTQsMTAwNCBDIDQ5MSw5NzggNjMxLDkxMiA3MzQsODA3IDgyMyw3MTYgODY3LDYxMCA4NjcsNDg3IDg2Nyw0MTYgODUzLDM1MCA4MjQsMjg5IDc5NSwyMjggNzU4LDE3NyA3MTQsMTM0IDY3MCw5MSA2MjEsNTcgNTY3LDMxIDQ5MCwtNiA0MTIsLTI0IDMzMSwtMjQgMjUwLC0yNCAxOTEsLTEwIDE1NCwxOCAxMTcsNDUgOTgsNzYgOTgsMTA5IDk4LDEyOCAxMDYsMTQ0IDEyMSwxNTkgMTM2LDE3MyAxNTYsMTgwIDE3OSwxODAgMTk2LDE4MCAyMTIsMTc3IDIyNSwxNzIgMjM4LDE2NyAyNjAsMTUzIDI5MSwxMzEgMzQxLDk2IDM5Miw3OSA0NDMsNzkgNTIxLDc5IDU5MCwxMDkgNjQ5LDE2OCA3MDgsMjI3IDczNywyOTggNzM3LDM4MyA3MzcsNDY1IDcxMSw1NDIgNjU4LDYxMyA2MDUsNjg0IDUzMyw3MzggNDQwLDc3NyAzNjcsODA3IDI2OCw4MjQgMTQzLDgyOSBMIDQwMywxMzU2IFoiIHVuaWNvZGU9IjUiLz4mI3hhOyAgIDxnbHlwaCBpZD0iZ2x5cGg2Nzc0IiBkPSJNIDk1Myw1MDAgTCA5NTMsMzU4IDc3MSwzNTggNzcxLDAgNjA2LDAgNjA2LDM1OCAzMiwzNTggMzIsNDg2IDY2MSwxMzg0IDc3MSwxMzg0IDc3MSw1MDAgWiBNIDYwNiw1MDAgTCA2MDYsMTE3MyAxMzAsNTAwIFoiIHVuaWNvZGU9IjQiLz4mI3hhOyAgIDxnbHlwaCBpZD0iZ2x5cGg2Nzc2IiBkPSJNIDEwNCwxMDk4IEMgMTQzLDExODkgMTkyLDEyNjAgMjUxLDEzMTAgMzEwLDEzNTkgMzgzLDEzODQgNDcxLDEzODQgNTgwLDEzODQgNjYzLDEzNDkgNzIxLDEyNzggNzY1LDEyMjUgNzg3LDExNjkgNzg3LDExMDkgNzg3LDEwMTAgNzI1LDkwOCA2MDEsODAzIDY4NCw3NzAgNzQ3LDcyNCA3OTAsNjYzIDgzMyw2MDIgODU0LDUzMSA4NTQsNDQ5IDg1NCwzMzIgODE3LDIzMCA3NDIsMTQ0IDY0NSwzMiA1MDQsLTI0IDMxOSwtMjQgMjI4LC0yNCAxNjYsLTEzIDEzMywxMCAxMDAsMzMgODMsNTcgODMsODMgODMsMTAyIDkxLDExOSAxMDcsMTM0IDEyMiwxNDkgMTQxLDE1NiAxNjMsMTU2IDE4MCwxNTYgMTk3LDE1MyAyMTQsMTQ4IDIyNSwxNDUgMjUxLDEzMyAyOTEsMTEyIDMzMSw5MSAzNTksNzggMzc0LDc0IDM5OSw2NyA0MjUsNjMgNDUzLDYzIDUyMSw2MyA1ODAsODkgNjMxLDE0MiA2ODEsMTk1IDcwNiwyNTcgNzA2LDMyOSA3MDYsMzgyIDY5NCw0MzMgNjcxLDQ4MyA2NTQsNTIwIDYzNSw1NDkgNjE0LDU2OCA1ODUsNTk1IDU0Niw2MTkgNDk2LDY0MSA0NDYsNjYyIDM5NSw2NzMgMzQzLDY3MyBMIDMxMSw2NzMgMzExLDcwMyBDIDM2NCw3MTAgNDE3LDcyOSA0NzAsNzYwIDUyMyw3OTEgNTYxLDgyOSA1ODUsODczIDYwOSw5MTcgNjIxLDk2NSA2MjEsMTAxOCA2MjEsMTA4NyA2MDAsMTE0MiA1NTcsMTE4NSA1MTQsMTIyNyA0NjAsMTI0OCAzOTYsMTI0OCAyOTMsMTI0OCAyMDYsMTE5MyAxMzcsMTA4MiBaIiB1bmljb2RlPSIzIi8+JiN4YTsgICA8Z2x5cGggaWQ9ImdseXBoNjc3OCIgZD0iTSA5MzksMjYxIEwgODQ0LDAgNDQsMCA0NCwzNyBDIDI3OSwyNTIgNDQ1LDQyNyA1NDEsNTYzIDYzNyw2OTkgNjg1LDgyMyA2ODUsOTM2IDY4NSwxMDIyIDY1OSwxMDkzIDYwNiwxMTQ4IDU1MywxMjAzIDQ5MCwxMjMxIDQxNywxMjMxIDM1MCwxMjMxIDI5MSwxMjEyIDIzOCwxMTczIDE4NSwxMTM0IDE0NSwxMDc2IDEyMCwxMDAxIEwgODMsMTAwMSBDIDEwMCwxMTI0IDE0MywxMjE5IDIxMiwxMjg1IDI4MSwxMzUxIDM2NywxMzg0IDQ3MCwxMzg0IDU4MCwxMzg0IDY3MiwxMzQ5IDc0NiwxMjc4IDgxOSwxMjA3IDg1NiwxMTI0IDg1NiwxMDI4IDg1Niw5NTkgODQwLDg5MSA4MDgsODIyIDc1OSw3MTQgNjc5LDYwMCA1NjgsNDc5IDQwMiwyOTggMjk4LDE4OCAyNTcsMTUxIEwgNjExLDE1MSBDIDY4MywxNTEgNzM0LDE1NCA3NjMsMTU5IDc5MiwxNjQgODE4LDE3NSA4NDEsMTkyIDg2NCwyMDggODg1LDIzMSA5MDIsMjYxIFoiIHVuaWNvZGU9IjIiLz4mI3hhOyAgIDxnbHlwaCBpZD0iZ2x5cGg2NzgwIiBkPSJNIDI0MCwxMjIzIEwgNTcwLDEzODQgNjAzLDEzODQgNjAzLDIzOSBDIDYwMywxNjMgNjA2LDExNiA2MTMsOTcgNjE5LDc4IDYzMiw2NCA2NTIsNTQgNjcyLDQ0IDcxMywzOCA3NzQsMzcgTCA3NzQsMCAyNjQsMCAyNjQsMzcgQyAzMjgsMzggMzY5LDQ0IDM4OCw1NCA0MDcsNjMgNDIwLDc2IDQyNyw5MyA0MzQsMTA5IDQzOCwxNTggNDM4LDIzOSBMIDQzOCw5NzEgQyA0MzgsMTA3MCA0MzUsMTEzMyA0MjgsMTE2MSA0MjMsMTE4MiA0MTUsMTE5OCA0MDMsMTIwOCAzOTAsMTIxOCAzNzUsMTIyMyAzNTgsMTIyMyAzMzMsMTIyMyAyOTksMTIxMyAyNTUsMTE5MiBaIiB1bmljb2RlPSIxIi8+JiN4YTsgICA8Z2x5cGggaWQ9ImdseXBoNjc4MiIgZD0iTSA3NCw2NzAgQyA3NCw4MjUgOTcsOTU4IDE0NCwxMDcwIDE5MSwxMTgxIDI1MywxMjY0IDMzMCwxMzE5IDM5MCwxMzYyIDQ1MiwxMzg0IDUxNiwxMzg0IDYyMCwxMzg0IDcxMywxMzMxIDc5NiwxMjI1IDg5OSwxMDk0IDk1MSw5MTYgOTUxLDY5MSA5NTEsNTM0IDkyOCw0MDAgODgzLDI5MCA4MzgsMTgwIDc4MCwxMDAgNzEwLDUxIDYzOSwxIDU3MSwtMjQgNTA2LC0yNCAzNzcsLTI0IDI2OSw1MiAxODMsMjA1IDExMCwzMzQgNzQsNDg5IDc0LDY3MCBaIE0gMjcwLDY0NSBDIDI3MCw0NTggMjkzLDMwNiAzMzksMTg4IDM3Nyw4OSA0MzQsMzkgNTA5LDM5IDU0NSwzOSA1ODIsNTUgNjIxLDg4IDY2MCwxMjAgNjg5LDE3NCA3MDksMjUwIDc0MCwzNjUgNzU1LDUyNiA3NTUsNzM1IDc1NSw4OTAgNzM5LDEwMTkgNzA3LDExMjIgNjgzLDExOTkgNjUyLDEyNTMgNjE0LDEyODUgNTg3LDEzMDcgNTU0LDEzMTggNTE1LDEzMTggNDcwLDEzMTggNDI5LDEyOTggMzk0LDEyNTcgMzQ2LDEyMDIgMzEzLDExMTUgMjk2LDk5NiAyNzksODc3IDI3MCw3NjAgMjcwLDY0NSBaIiB1bmljb2RlPSIwIi8+JiN4YTsgICA8Z2x5cGggaWQ9ImdseXBoNjc4NCIgZD0iTSA4Myw1MzUgTCA2MDAsNTM1IDYwMCwzODQgODMsMzg0IFoiIHVuaWNvZGU9Ii0iLz4mI3hhOyAgIDxnbHlwaCBpZD0iZ2x5cGg2Nzg2IiB1bmljb2RlPSIiLz4mI3hhOyAgPC9mb250PiYjeGE7IDwvZGVmcz4mI3hhOyA8ZGVmcyBpZD0iZGVmczY3OTgiPiYjeGE7ICA8Zm9udCBpZD0iRW1iZWRkZWRGb250XzIiPiYjeGE7ICAgJiN4YTsgICAmI3hhOyAgIDxnbHlwaCBpZD0iZ2x5cGg2Nzk1IiBkPSJNIDQ5Myw5OTIgQyA0OTEsMTAzMSA0ODcsMTA2MCA0ODIsMTA4MCA0NzYsMTEwMCA0NjIsMTEzMSA0NDEsMTE3MyA0MTksMTIxNSA0MDgsMTI0OCA0MDgsMTI3MSA0MDgsMTMwMiA0MTksMTMyOSA0NDEsMTM1MiA0NjIsMTM3NSA0ODYsMTM4NyA1MTIsMTM4NyA1NDEsMTM4NyA1NjYsMTM3NiA1ODcsMTM1NSA2MDgsMTMzMyA2MTgsMTMwNSA2MTgsMTI3MCA2MTgsMTI0MyA2MDgsMTIxMCA1ODcsMTE3MSA1NjYsMTEzMiA1NTMsMTEwMyA1NDgsMTA4MyA1NDIsMTA2MiA1MzcsMTAzMiA1MzQsOTkyIDU3MSwxMDA3IDU5OCwxMDIxIDYxNCwxMDMyIDYzMCwxMDQzIDY1NCwxMDY2IDY4NSwxMDk5IDcyNywxMTQ0IDc2NywxMTY2IDgwNiwxMTY2IDgzNSwxMTY2IDg2MCwxMTU2IDg4MCwxMTM3IDkwMCwxMTE4IDkxMCwxMDk1IDkxMCwxMDY4IDkxMCwxMDM5IDg5OCwxMDE0IDg3Myw5OTIgODQ4LDk3MCA4MTYsOTU5IDc3Nyw5NTkgNzY0LDk1OSA3NDAsOTYwIDcwNiw5NjIgNjkwLDk2MyA2NzMsOTYzIDY1NCw5NjMgNjI5LDk2MyA1OTIsOTYyIDU0Miw5NTkgNTcxLDkyNiA1OTMsOTA0IDYwOSw4OTIgNjI1LDg3OSA2NTMsODYzIDY5Miw4NDMgNzMxLDgyMyA3NjAsODAyIDc3Nyw3NzkgNzkwLDc2MiA3OTYsNzQxIDc5Niw3MTUgNzk2LDY4NiA3ODYsNjYyIDc2Nyw2NDMgNzQ4LDYyMyA3MjQsNjEzIDY5Nyw2MTMgNjY4LDYxMyA2NDMsNjI1IDYyMCw2NDkgNTk3LDY3MiA1ODEsNzE0IDU3Miw3NzUgNTY3LDgxNCA1NjEsODQzIDU1NSw4NjEgNTQ4LDg3OSA1MzUsOTA1IDUxNCw5NDAgNDkyLDkwNSA0NzcsODc3IDQ3MCw4NTggNDYzLDgzOSA0NTYsODExIDQ1MSw3NzUgNDQyLDcxNCA0MjcsNjczIDQwNSw2NTAgMzgzLDYyNyAzNTcsNjE2IDMyOCw2MTYgMzAxLDYxNiAyNzcsNjI1IDI1OCw2NDQgMjM4LDY2MyAyMjgsNjg1IDIyOCw3MTEgMjI4LDczOCAyMzYsNzYyIDI1MSw3ODMgMjY2LDgwNCAyOTMsODI1IDMzNCw4NDggMzc0LDg3MCA0MDIsODg3IDQxNyw4OTggNDMyLDkwOSA0NTUsOTMwIDQ4NCw5NTkgTCAzNzcsOTYzIEMgMzU4LDk2MyAzNDEsOTYzIDMyNCw5NjIgMjg1LDk1OSAyNTgsOTU4IDI0Myw5NTggMjA1LDk1OCAxNzQsOTY5IDE1MCw5OTAgMTI2LDEwMTEgMTE0LDEwMzcgMTE0LDEwNjYgMTE0LDEwOTMgMTI0LDExMTcgMTQ0LDExMzcgMTYzLDExNTYgMTg4LDExNjYgMjE4LDExNjYgMjYwLDExNjYgMzAwLDExNDYgMzM5LDExMDYgMzc4LDEwNjYgNDAzLDEwNDIgNDE0LDEwMzMgNDMwLDEwMjIgNDU2LDEwMDggNDkzLDk5MiBaIiB1bmljb2RlPSIqIi8+JiN4YTsgIDwvZm9udD4mI3hhOyA8L2RlZnM+JiN4YTsgPGRlZnMgaWQ9ImRlZnM2ODAyIiBjbGFzcz0iVGV4dFNoYXBlSW5kZXgiPiYjeGE7ICA8ZyBpZD0iZzY4MDAiLz4mI3hhOyA8L2RlZnM+JiN4YTsgPGRlZnMgaWQ9ImRlZnM2ODM0IiBjbGFzcz0iRW1iZWRkZWRCdWxsZXRDaGFycyI+JiN4YTsgIDxnIHRyYW5zZm9ybT0ic2NhbGUoMC4wMDA0ODgyODEyNSwtMC4wMDA0ODgyODEyNSkiIGlkPSJidWxsZXQtY2hhci10ZW1wbGF0ZS01NzM1NiI+JiN4YTsgICA8cGF0aCBpZD0icGF0aDY4MDQiIGQ9Ik0gNTgwLDExNDEgTCAxMTYzLDU3MSA1ODAsMCAtNCw1NzEgNTgwLDExNDEgWiIvPiYjeGE7ICA8L2c+JiN4YTsgIDxnIHRyYW5zZm9ybT0ic2NhbGUoMC4wMDA0ODgyODEyNSwtMC4wMDA0ODgyODEyNSkiIGlkPSJidWxsZXQtY2hhci10ZW1wbGF0ZS01NzM1NCI+JiN4YTsgICA8cGF0aCBpZD0icGF0aDY4MDciIGQ9Ik0gOCwxMTI4IEwgMTEzNywxMTI4IDExMzcsMCA4LDAgOCwxMTI4IFoiLz4mI3hhOyAgPC9nPiYjeGE7ICA8ZyB0cmFuc2Zvcm09InNjYWxlKDAuMDAwNDg4MjgxMjUsLTAuMDAwNDg4MjgxMjUpIiBpZD0iYnVsbGV0LWNoYXItdGVtcGxhdGUtMTAxNDYiPiYjeGE7ICAgPHBhdGggaWQ9InBhdGg2ODEwIiBkPSJNIDE3NCwwIEwgNjAyLDczOSAxNzQsMTQ4MSAxNDU2LDczOSAxNzQsMCBaIE0gMTM1OCw3MzkgTCAzMDksMTM0NiA2NTksNzM5IDEzNTgsNzM5IFoiLz4mI3hhOyAgPC9nPiYjeGE7ICA8ZyB0cmFuc2Zvcm09InNjYWxlKDAuMDAwNDg4MjgxMjUsLTAuMDAwNDg4MjgxMjUpIiBpZD0iYnVsbGV0LWNoYXItdGVtcGxhdGUtMTAxMzIiPiYjeGE7ICAgPHBhdGggaWQ9InBhdGg2ODEzIiBkPSJNIDIwMTUsNzM5IEwgMTI3NiwwIDcxNywwIDEyNjAsNTQzIDE3NCw1NDMgMTc0LDkzNiAxMjYwLDkzNiA3MTcsMTQ4MSAxMjc0LDE0ODEgMjAxNSw3MzkgWiIvPiYjeGE7ICA8L2c+JiN4YTsgIDxnIHRyYW5zZm9ybT0ic2NhbGUoMC4wMDA0ODgyODEyNSwtMC4wMDA0ODgyODEyNSkiIGlkPSJidWxsZXQtY2hhci10ZW1wbGF0ZS0xMDAwNyI+JiN4YTsgICA8cGF0aCBpZD0icGF0aDY4MTYiIGQ9Ik0gMCwtMiBDIC03LDE0IC0xNiwyNyAtMjUsMzcgTCAzNTYsNTY3IEMgMjYyLDgyMyAyMTUsOTUyIDIxNSw5NTQgMjE1LDk3OSAyMjgsOTkyIDI1NSw5OTIgMjY0LDk5MiAyNzYsOTkwIDI4OSw5ODcgMzEwLDk5MSAzMzEsOTk5IDM1NCwxMDEyIEwgMzgxLDk5OSA0OTIsNzQ4IDc3MiwxMDQ5IDgzNiwxMDI0IDg2MCwxMDQ5IEMgODgxLDEwMzkgOTAxLDEwMjUgOTIyLDEwMDYgODg2LDkzNyA4MzUsODYzIDc3MCw3ODQgNzY5LDc4MyA3MTAsNzE2IDU5NCw1ODQgTCA3NzQsMjIzIEMgNzc0LDE5NiA3NTMsMTY4IDcxMSwxMzkgTCA3MjcsMTE5IEMgNzE3LDkwIDY5OSw3NiA2NzIsNzYgNjQxLDc2IDU3MCwxNzggNDU3LDM4MSBMIDE2NCwtNzYgQyAxNDIsLTExMCAxMTEsLTEyNyA3MiwtMTI3IDMwLC0xMjcgOSwtMTEwIDgsLTc2IDEsLTY3IC0yLC01MiAtMiwtMzIgLTIsLTIzIC0xLC0xMyAwLC0yIFoiLz4mI3hhOyAgPC9nPiYjeGE7ICA8ZyB0cmFuc2Zvcm09InNjYWxlKDAuMDAwNDg4MjgxMjUsLTAuMDAwNDg4MjgxMjUpIiBpZD0iYnVsbGV0LWNoYXItdGVtcGxhdGUtMTAwMDQiPiYjeGE7ICAgPHBhdGggaWQ9InBhdGg2ODE5IiBkPSJNIDI4NSwtMzMgQyAxODIsLTMzIDExMSwzMCA3NCwxNTYgNTIsMjI4IDQxLDMzMyA0MSw0NzEgNDEsNTQ5IDU1LDYxNiA4Miw2NzIgMTE2LDc0MyAxNjksNzc4IDI0MCw3NzggMjkzLDc3OCAzMjgsNzQ3IDM0Niw2ODQgTCAzNjksNTA4IEMgMzc3LDQ0NCAzOTcsNDExIDQyOCw0MTAgTCAxMTYzLDExMTYgQyAxMTc0LDExMjcgMTE5NiwxMTMzIDEyMjksMTEzMyAxMjcxLDExMzMgMTI5MiwxMTE4IDEyOTIsMTA4NyBMIDEyOTIsOTY1IEMgMTI5Miw5MjkgMTI4Miw5MDEgMTI2Miw4ODEgTCA0NDIsNDcgQyAzOTAsLTYgMzM4LC0zMyAyODUsLTMzIFoiLz4mI3hhOyAgPC9nPiYjeGE7ICA8ZyB0cmFuc2Zvcm09InNjYWxlKDAuMDAwNDg4MjgxMjUsLTAuMDAwNDg4MjgxMjUpIiBpZD0iYnVsbGV0LWNoYXItdGVtcGxhdGUtOTY3OSI+JiN4YTsgICA8cGF0aCBpZD0icGF0aDY4MjIiIGQ9Ik0gODEzLDAgQyA2MzIsMCA0ODksNTQgMzgzLDE2MSAyNzYsMjY4IDIyMyw0MTEgMjIzLDU5MiAyMjMsNzczIDI3Niw5MTYgMzgzLDEwMjMgNDg5LDExMzAgNjMyLDExODQgODEzLDExODQgOTkyLDExODQgMTEzNiwxMTMwIDEyNDUsMTAyMyAxMzUzLDkxNiAxNDA3LDc3MiAxNDA3LDU5MiAxNDA3LDQxMiAxMzUzLDI2OCAxMjQ1LDE2MSAxMTM2LDU0IDk5MiwwIDgxMywwIFoiLz4mI3hhOyAgPC9nPiYjeGE7ICA8ZyB0cmFuc2Zvcm09InNjYWxlKDAuMDAwNDg4MjgxMjUsLTAuMDAwNDg4MjgxMjUpIiBpZD0iYnVsbGV0LWNoYXItdGVtcGxhdGUtODIyNiI+JiN4YTsgICA8cGF0aCBpZD0icGF0aDY4MjUiIGQ9Ik0gMzQ2LDQ1NyBDIDI3Myw0NTcgMjA5LDQ4MyAxNTUsNTM1IDEwMSw1ODYgNzQsNjQ5IDc0LDcyMyA3NCw3OTYgMTAxLDg1OSAxNTUsOTExIDIwOSw5NjMgMjczLDk4OSAzNDYsOTg5IDQxOSw5ODkgNDgwLDk2MyA1MzEsOTEwIDU4Miw4NTkgNjA4LDc5NiA2MDgsNzIzIDYwOCw2NDggNTgzLDU4NiA1MzIsNTM1IDQ4Miw0ODMgNDIwLDQ1NyAzNDYsNDU3IFoiLz4mI3hhOyAgPC9nPiYjeGE7ICA8ZyB0cmFuc2Zvcm09InNjYWxlKDAuMDAwNDg4MjgxMjUsLTAuMDAwNDg4MjgxMjUpIiBpZD0iYnVsbGV0LWNoYXItdGVtcGxhdGUtODIxMSI+JiN4YTsgICA8cGF0aCBpZD0icGF0aDY4MjgiIGQ9Ik0gLTQsNDU5IEwgMTEzNSw0NTkgMTEzNSw2MDYgLTQsNjA2IC00LDQ1OSBaIi8+JiN4YTsgIDwvZz4mI3hhOyAgPGcgdHJhbnNmb3JtPSJzY2FsZSgwLjAwMDQ4ODI4MTI1LC0wLjAwMDQ4ODI4MTI1KSIgaWQ9ImJ1bGxldC1jaGFyLXRlbXBsYXRlLTYxNTQ4Ij4mI3hhOyAgIDxwYXRoIGlkPSJwYXRoNjgzMSIgZD0iTSAxNzMsNzQwIEMgMTczLDkwMyAyMzEsMTA0MyAzNDYsMTE1OSA0NjIsMTI3NCA2MDEsMTMzMiA3NjUsMTMzMiA5MjgsMTMzMiAxMDY3LDEyNzQgMTE4MywxMTU5IDEyOTksMTA0MyAxMzU3LDkwMyAxMzU3LDc0MCAxMzU3LDU3NyAxMjk5LDQzNyAxMTgzLDMyMiAxMDY3LDIwNiA5MjgsMTQ4IDc2NSwxNDggNjAxLDE0OCA0NjIsMjA2IDM0NiwzMjIgMjMxLDQzNyAxNzMsNTc3IDE3Myw3NDAgWiIvPiYjeGE7ICA8L2c+JiN4YTsgPC9kZWZzPiYjeGE7ICYjeGE7IDxnIGlkPSJnNjgzOSIgc3R5bGU9Im9wYWNpdHk6MC45OCIgdHJhbnNmb3JtPSJ0cmFuc2xhdGUoMCwtNDI5OS44MTcyKSI+JiN4YTsgIDxnIGNsYXNzPSJNYXN0ZXJfU2xpZGUiIGlkPSJpZDIiPiYjeGE7ICAgPGcgY2xhc3M9IkJhY2tncm91bmQiIGlkPSJiZy1pZDIiLz4mI3hhOyAgIDxnIGNsYXNzPSJCYWNrZ3JvdW5kT2JqZWN0cyIgaWQ9ImJvLWlkMiIvPiYjeGE7ICA8L2c+JiN4YTsgPC9nPjxnIGlkPSJnNjkxNyIgc3R5bGU9Im9wYWNpdHk6MC45OCIgdHJhbnNmb3JtPSJ0cmFuc2xhdGUoMCwtNDI5OS44MTcyKSI+JiN4YTsgICAgICAgIDxyZWN0IGlkPSJyZWN0Njg0MSIgaGVpZ2h0PSIyMjEwIiB3aWR0aD0iNjI2NSIgeT0iMTc3MjEiIHg9IjQ5NDAiIGZpbGw9Im5vbmUiIHN0cm9rZT0ibm9uZSIgY2xhc3M9IkJvdW5kaW5nQm94Ii8+JiN4YTsgICAgICAgIDxwYXRoIGlkPSJwYXRoNjg0MyIgZD0ibSA0OTQyLDE3NzIzIGggMjMxMCB2IDczNSBIIDQ5NDIgWiIgc3Ryb2tlPSJub25lIiBmaWxsPSIjZTZlNmU2Ii8+JiN4YTsgICAgICAgIDx0ZXh0IGlkPSJ0ZXh0Njg1MSIgY2xhc3M9IlRleHRTaGFwZSI+PHRzcGFuIGlkPSJ0c3BhbjY4NDkiIGZvbnQtd2VpZ2h0PSI0MDAiIGZvbnQtc2l6ZT0iNDIzcHgiIGZvbnQtZmFtaWx5PSInVGltZXMgTmV3IFJvbWFuJywgc2VyaWYiIGNsYXNzPSJUZXh0UGFyYWdyYXBoIj48dHNwYW4gaWQ9InRzcGFuNjg0NyIgeT0iMTgyMzAiIHg9IjU0NTAiIGNsYXNzPSJUZXh0UG9zaXRpb24iPjx0c3BhbiBpZD0idHNwYW42ODQ1IiBzdHJva2U9Im5vbmUiIGZpbGw9IiMwMDAwMDAiPmNvbW1pdDwvdHNwYW4+PC90c3Bhbj48L3RzcGFuPjwvdGV4dD4mI3hhOyAgICAgICAgPHBhdGggaWQ9InBhdGg2ODUzIiBkPSJtIDcyNTIsMTc3MjMgaCAzOTUwIHYgNzM1IEggNzI1MiBaIiBzdHJva2U9Im5vbmUiIGZpbGw9IiNlNmU2ZTYiLz4mI3hhOyAgICAgICAgPHRleHQgaWQ9InRleHQ2ODYxIiBjbGFzcz0iVGV4dFNoYXBlIj48dHNwYW4gaWQ9InRzcGFuNjg1OSIgZm9udC13ZWlnaHQ9IjQwMCIgZm9udC1zaXplPSI0MjNweCIgZm9udC1mYW1pbHk9IidUaW1lcyBOZXcgUm9tYW4nLCBzZXJpZiIgY2xhc3M9IlRleHRQYXJhZ3JhcGgiPjx0c3BhbiBpZD0idHNwYW42ODU3IiB5PSIxODIzMCIgeD0iODQ5OSIgY2xhc3M9IlRleHRQb3NpdGlvbiI+PHRzcGFuIGlkPSJ0c3BhbjY4NTUiIHN0cm9rZT0ibm9uZSIgZmlsbD0iIzAwMDAwMCI+MzYwZTQwZDwvdHNwYW4+PC90c3Bhbj48L3RzcGFuPjwvdGV4dD4mI3hhOyAgICAgICAgPHBhdGggaWQ9InBhdGg2ODYzIiBkPSJtIDQ5NDIsMTg0NTggaCAyMzEwIHYgNzM1IEggNDk0MiBaIiBzdHJva2U9Im5vbmUiIGZpbGw9IiNlNmU2ZTYiLz4mI3hhOyAgICAgICAgPHRleHQgaWQ9InRleHQ2ODcxIiBjbGFzcz0iVGV4dFNoYXBlIj48dHNwYW4gaWQ9InRzcGFuNjg2OSIgZm9udC13ZWlnaHQ9IjQwMCIgZm9udC1zaXplPSI0MjNweCIgZm9udC1mYW1pbHk9IidUaW1lcyBOZXcgUm9tYW4nLCBzZXJpZiIgY2xhc3M9IlRleHRQYXJhZ3JhcGgiPjx0c3BhbiBpZD0idHNwYW42ODY3IiB5PSIxODk2NSIgeD0iNTc0NiIgY2xhc3M9IlRleHRQb3NpdGlvbiI+PHRzcGFuIGlkPSJ0c3BhbjY4NjUiIHN0cm9rZT0ibm9uZSIgZmlsbD0iIzAwMDAwMCI+ZGF0ZTwvdHNwYW4+PC90c3Bhbj48L3RzcGFuPjwvdGV4dD4mI3hhOyAgICAgICAgPHBhdGggaWQ9InBhdGg2ODczIiBkPSJtIDcyNTIsMTg0NTggaCAzOTUwIHYgNzM1IEggNzI1MiBaIiBzdHJva2U9Im5vbmUiIGZpbGw9IiNlNmU2ZTYiLz4mI3hhOyAgICAgICAgPHRleHQgaWQ9InRleHQ2ODgxIiBjbGFzcz0iVGV4dFNoYXBlIj48dHNwYW4gaWQ9InRzcGFuNjg3OSIgZm9udC13ZWlnaHQ9IjQwMCIgZm9udC1zaXplPSI0MjNweCIgZm9udC1mYW1pbHk9IidUaW1lcyBOZXcgUm9tYW4nLCBzZXJpZiIgY2xhc3M9IlRleHRQYXJhZ3JhcGgiPjx0c3BhbiBpZD0idHNwYW42ODc3IiB5PSIxODk2NSIgeD0iNzcwNSIgY2xhc3M9IlRleHRQb3NpdGlvbiI+PHRzcGFuIGlkPSJ0c3BhbjY4NzUiIHN0cm9rZT0ibm9uZSIgZmlsbD0iIzAwMDAwMCI+MjA6NDMgMDYtMDctMjAyMDwvdHNwYW4+PC90c3Bhbj48L3RzcGFuPjwvdGV4dD4mI3hhOyAgICAgICAgPHBhdGggaWQ9InBhdGg2ODgzIiBkPSJtIDQ5NDIsMTkxOTMgaCAyMzEwIHYgNzM1IEggNDk0MiBaIiBzdHJva2U9Im5vbmUiIGZpbGw9IiNlNmU2ZTYiLz4mI3hhOyAgICAgICAgPHRleHQgaWQ9InRleHQ2ODkxIiBjbGFzcz0iVGV4dFNoYXBlIj48dHNwYW4gaWQ9InRzcGFuNjg4OSIgZm9udC13ZWlnaHQ9IjQwMCIgZm9udC1zaXplPSI0MjNweCIgZm9udC1mYW1pbHk9IidUaW1lcyBOZXcgUm9tYW4nLCBzZXJpZiIgY2xhc3M9IlRleHRQYXJhZ3JhcGgiPjx0c3BhbiBpZD0idHNwYW42ODg3IiB5PSIxOTcwMCIgeD0iNTM4MiIgY2xhc3M9IlRleHRQb3NpdGlvbiI+PHRzcGFuIGlkPSJ0c3BhbjY4ODUiIHN0cm9rZT0ibm9uZSIgZmlsbD0iIzAwMDAwMCI+bWVzc2FnZTwvdHNwYW4+PC90c3Bhbj48L3RzcGFuPjwvdGV4dD4mI3hhOyAgICAgICAgPHBhdGggaWQ9InBhdGg2ODkzIiBkPSJtIDcyNTIsMTkxOTMgaCAzOTUwIHYgNzM1IEggNzI1MiBaIiBzdHJva2U9Im5vbmUiIGZpbGw9IiNlNmU2ZTYiLz4mI3hhOyAgICAgICAgPHRleHQgaWQ9InRleHQ2OTAxIiBjbGFzcz0iVGV4dFNoYXBlIj48dHNwYW4gaWQ9InRzcGFuNjg5OSIgZm9udC13ZWlnaHQ9IjQwMCIgZm9udC1zaXplPSI0MjNweCIgZm9udC1mYW1pbHk9IidUaW1lcyBOZXcgUm9tYW4nLCBzZXJpZiIgY2xhc3M9IlRleHRQYXJhZ3JhcGgiPjx0c3BhbiBpZD0idHNwYW42ODk3IiB5PSIxOTcwMCIgeD0iODAyMSIgY2xhc3M9IlRleHRQb3NpdGlvbiI+PHRzcGFuIGlkPSJ0c3BhbjY4OTUiIHN0cm9rZT0ibm9uZSIgZmlsbD0iIzAwMDAwMCI+SW5pdGlhbCBjb21taXQ8L3RzcGFuPjwvdHNwYW4+PC90c3Bhbj48L3RleHQ+JiN4YTsgICAgICAgIDxwYXRoIGlkPSJwYXRoNjkwMyIgZD0ibSA0OTMyLDE3NzIzIGggNjI4MCIgc3Ryb2tlLWxpbmVqb2luPSJyb3VuZCIgc3Ryb2tlLXdpZHRoPSIyMCIgc3Ryb2tlPSIjZmZmZmZmIiBmaWxsPSJub25lIi8+JiN4YTsgICAgICAgIDxwYXRoIGlkPSJwYXRoNjkwNSIgZD0ibSA0OTQyLDE3NzEzIHYgMjIyNSIgc3Ryb2tlLWxpbmVqb2luPSJyb3VuZCIgc3Ryb2tlLXdpZHRoPSIyMCIgc3Ryb2tlPSIjZmZmZmZmIiBmaWxsPSJub25lIi8+JiN4YTsgICAgICAgIDxwYXRoIGlkPSJwYXRoNjkwNyIgZD0ibSA3MjUyLDE3NzEzIHYgMjIyNSIgc3Ryb2tlLWxpbmVqb2luPSJyb3VuZCIgc3Ryb2tlLXdpZHRoPSIyMCIgc3Ryb2tlPSIjZmZmZmZmIiBmaWxsPSJub25lIi8+JiN4YTsgICAgICAgIDxwYXRoIGlkPSJwYXRoNjkwOSIgZD0ibSAxMTIwMiwxNzcxMyB2IDIyMjUiIHN0cm9rZS1saW5lam9pbj0icm91bmQiIHN0cm9rZS13aWR0aD0iMjAiIHN0cm9rZT0iI2ZmZmZmZiIgZmlsbD0ibm9uZSIvPiYjeGE7ICAgICAgICA8cGF0aCBpZD0icGF0aDY5MTEiIGQ9Im0gNDkzMiwxODQ1OCBoIDYyODAiIHN0cm9rZS1saW5lam9pbj0icm91bmQiIHN0cm9rZS13aWR0aD0iMjAiIHN0cm9rZT0iI2ZmZmZmZiIgZmlsbD0ibm9uZSIvPiYjeGE7ICAgICAgICA8cGF0aCBpZD0icGF0aDY5MTMiIGQ9Im0gNDkzMiwxOTE5MyBoIDYyODAiIHN0cm9rZS1saW5lam9pbj0icm91bmQiIHN0cm9rZS13aWR0aD0iMjAiIHN0cm9rZT0iI2ZmZmZmZiIgZmlsbD0ibm9uZSIvPiYjeGE7ICAgICAgICA8cGF0aCBpZD0icGF0aDY5MTUiIGQ9Im0gNDkzMiwxOTkyOCBoIDYyODAiIHN0cm9rZS1saW5lam9pbj0icm91bmQiIHN0cm9rZS13aWR0aD0iMjAiIHN0cm9rZT0iI2ZmZmZmZiIgZmlsbD0ibm9uZSIvPiYjeGE7ICAgICAgIDwvZz48ZyBpZD0iZzY5OTciIHN0eWxlPSJvcGFjaXR5OjAuOTgiIHRyYW5zZm9ybT0idHJhbnNsYXRlKDAsLTQyOTkuODE3MikiPiYjeGE7ICAgICAgICA8cmVjdCBpZD0icmVjdDY5MjEiIGhlaWdodD0iMjIxMCIgd2lkdGg9IjYyNjUiIHk9IjEyNzQwIiB4PSIxMDcwIiBmaWxsPSJub25lIiBzdHJva2U9Im5vbmUiIGNsYXNzPSJCb3VuZGluZ0JveCIvPiYjeGE7ICAgICAgICA8cGF0aCBpZD0icGF0aDY5MjMiIGQ9Im0gMTA3MiwxMjc0MiBoIDIzMTAgdiA3MzUgSCAxMDcyIFoiIHN0cm9rZT0ibm9uZSIgZmlsbD0iI2U2ZTZlNiIvPiYjeGE7ICAgICAgICA8dGV4dCBpZD0idGV4dDY5MzEiIGNsYXNzPSJUZXh0U2hhcGUiPjx0c3BhbiBpZD0idHNwYW42OTI5IiBmb250LXdlaWdodD0iNDAwIiBmb250LXNpemU9IjQyM3B4IiBmb250LWZhbWlseT0iJ1RpbWVzIE5ldyBSb21hbicsIHNlcmlmIiBjbGFzcz0iVGV4dFBhcmFncmFwaCI+PHRzcGFuIGlkPSJ0c3BhbjY5MjciIHk9IjEzMjQ5IiB4PSIxNTgwIiBjbGFzcz0iVGV4dFBvc2l0aW9uIj48dHNwYW4gaWQ9InRzcGFuNjkyNSIgc3Ryb2tlPSJub25lIiBmaWxsPSIjMDAwMDAwIj5jb21taXQ8L3RzcGFuPjwvdHNwYW4+PC90c3Bhbj48L3RleHQ+JiN4YTsgICAgICAgIDxwYXRoIGlkPSJwYXRoNjkzMyIgZD0ibSAzMzgyLDEyNzQyIGggMzk1MCB2IDczNSBIIDMzODIgWiIgc3Ryb2tlPSJub25lIiBmaWxsPSIjZTZlNmU2Ii8+JiN4YTsgICAgICAgIDx0ZXh0IGlkPSJ0ZXh0Njk0MSIgY2xhc3M9IlRleHRTaGFwZSI+PHRzcGFuIGlkPSJ0c3BhbjY5MzkiIGZvbnQtd2VpZ2h0PSI0MDAiIGZvbnQtc2l6ZT0iNDIzcHgiIGZvbnQtZmFtaWx5PSInVGltZXMgTmV3IFJvbWFuJywgc2VyaWYiIGNsYXNzPSJUZXh0UGFyYWdyYXBoIj48dHNwYW4gaWQ9InRzcGFuNjkzNyIgeT0iMTMyNDkiIHg9IjQ2NDIiIGNsYXNzPSJUZXh0UG9zaXRpb24iPjx0c3BhbiBpZD0idHNwYW42OTM1IiBzdHJva2U9Im5vbmUiIGZpbGw9IiMwMDAwMDAiPjVhOTVjNDU8L3RzcGFuPjwvdHNwYW4+PC90c3Bhbj48L3RleHQ+JiN4YTsgICAgICAgIDxwYXRoIGlkPSJwYXRoNjk0MyIgZD0ibSAxMDcyLDEzNDc3IGggMjMxMCB2IDczNSBIIDEwNzIgWiIgc3Ryb2tlPSJub25lIiBmaWxsPSIjZTZlNmU2Ii8+JiN4YTsgICAgICAgIDx0ZXh0IGlkPSJ0ZXh0Njk1MSIgY2xhc3M9IlRleHRTaGFwZSI+PHRzcGFuIGlkPSJ0c3BhbjY5NDkiIGZvbnQtd2VpZ2h0PSI0MDAiIGZvbnQtc2l6ZT0iNDIzcHgiIGZvbnQtZmFtaWx5PSInVGltZXMgTmV3IFJvbWFuJywgc2VyaWYiIGNsYXNzPSJUZXh0UGFyYWdyYXBoIj48dHNwYW4gaWQ9InRzcGFuNjk0NyIgeT0iMTM5ODQiIHg9IjE4NzYiIGNsYXNzPSJUZXh0UG9zaXRpb24iPjx0c3BhbiBpZD0idHNwYW42OTQ1IiBzdHJva2U9Im5vbmUiIGZpbGw9IiMwMDAwMDAiPmRhdGU8L3RzcGFuPjwvdHNwYW4+PC90c3Bhbj48L3RleHQ+JiN4YTsgICAgICAgIDxwYXRoIGlkPSJwYXRoNjk1MyIgZD0ibSAzMzgyLDEzNDc3IGggMzk1MCB2IDczNSBIIDMzODIgWiIgc3Ryb2tlPSJub25lIiBmaWxsPSIjZTZlNmU2Ii8+JiN4YTsgICAgICAgIDx0ZXh0IGlkPSJ0ZXh0Njk2MSIgY2xhc3M9IlRleHRTaGFwZSI+PHRzcGFuIGlkPSJ0c3BhbjY5NTkiIGZvbnQtd2VpZ2h0PSI0MDAiIGZvbnQtc2l6ZT0iNDIzcHgiIGZvbnQtZmFtaWx5PSInVGltZXMgTmV3IFJvbWFuJywgc2VyaWYiIGNsYXNzPSJUZXh0UGFyYWdyYXBoIj48dHNwYW4gaWQ9InRzcGFuNjk1NyIgeT0iMTM5ODQiIHg9IjM4MzUiIGNsYXNzPSJUZXh0UG9zaXRpb24iPjx0c3BhbiBpZD0idHNwYW42OTU1IiBzdHJva2U9Im5vbmUiIGZpbGw9IiMwMDAwMDAiPjIxOjA1IDA2LTA3LTIwMjA8L3RzcGFuPjwvdHNwYW4+PC90c3Bhbj48L3RleHQ+JiN4YTsgICAgICAgIDxwYXRoIGlkPSJwYXRoNjk2MyIgZD0ibSAxMDcyLDE0MjEyIGggMjMxMCB2IDczNSBIIDEwNzIgWiIgc3Ryb2tlPSJub25lIiBmaWxsPSIjZTZlNmU2Ii8+JiN4YTsgICAgICAgIDx0ZXh0IGlkPSJ0ZXh0Njk3MSIgY2xhc3M9IlRleHRTaGFwZSI+PHRzcGFuIGlkPSJ0c3BhbjY5NjkiIGZvbnQtd2VpZ2h0PSI0MDAiIGZvbnQtc2l6ZT0iNDIzcHgiIGZvbnQtZmFtaWx5PSInVGltZXMgTmV3IFJvbWFuJywgc2VyaWYiIGNsYXNzPSJUZXh0UGFyYWdyYXBoIj48dHNwYW4gaWQ9InRzcGFuNjk2NyIgeT0iMTQ3MTkiIHg9IjE1MTIiIGNsYXNzPSJUZXh0UG9zaXRpb24iPjx0c3BhbiBpZD0idHNwYW42OTY1IiBzdHJva2U9Im5vbmUiIGZpbGw9IiMwMDAwMDAiPm1lc3NhZ2U8L3RzcGFuPjwvdHNwYW4+PC90c3Bhbj48L3RleHQ+JiN4YTsgICAgICAgIDxwYXRoIGlkPSJwYXRoNjk3MyIgZD0ibSAzMzgyLDE0MjEyIGggMzk1MCB2IDczNSBIIDMzODIgWiIgc3Ryb2tlPSJub25lIiBmaWxsPSIjZTZlNmU2Ii8+JiN4YTsgICAgICAgIDx0ZXh0IGlkPSJ0ZXh0Njk4MSIgY2xhc3M9IlRleHRTaGFwZSI+PHRzcGFuIGlkPSJ0c3BhbjY5NzkiIGZvbnQtd2VpZ2h0PSI0MDAiIGZvbnQtc2l6ZT0iNDIzcHgiIGZvbnQtZmFtaWx5PSInVGltZXMgTmV3IFJvbWFuJywgc2VyaWYiIGNsYXNzPSJUZXh0UGFyYWdyYXBoIj48dHNwYW4gaWQ9InRzcGFuNjk3NyIgeT0iMTQ3MTkiIHg9IjQ0NDkiIGNsYXNzPSJUZXh0UG9zaXRpb24iPjx0c3BhbiBpZD0idHNwYW42OTc1IiBzdHJva2U9Im5vbmUiIGZpbGw9IiMwMDAwMDAiPkNyYXp5IGlkZWE8L3RzcGFuPjwvdHNwYW4+PC90c3Bhbj48L3RleHQ+JiN4YTsgICAgICAgIDxwYXRoIGlkPSJwYXRoNjk4MyIgZD0iTSAxMDYyLDEyNzQyIEggNzM0MiIgc3Ryb2tlLWxpbmVqb2luPSJyb3VuZCIgc3Ryb2tlLXdpZHRoPSIyMCIgc3Ryb2tlPSIjZmZmZmZmIiBmaWxsPSJub25lIi8+JiN4YTsgICAgICAgIDxwYXRoIGlkPSJwYXRoNjk4NSIgZD0ibSAxMDcyLDEyNzMyIHYgMjIyNSIgc3Ryb2tlLWxpbmVqb2luPSJyb3VuZCIgc3Ryb2tlLXdpZHRoPSIyMCIgc3Ryb2tlPSIjZmZmZmZmIiBmaWxsPSJub25lIi8+JiN4YTsgICAgICAgIDxwYXRoIGlkPSJwYXRoNjk4NyIgZD0ibSAzMzgyLDEyNzMyIHYgMjIyNSIgc3Ryb2tlLWxpbmVqb2luPSJyb3VuZCIgc3Ryb2tlLXdpZHRoPSIyMCIgc3Ryb2tlPSIjZmZmZmZmIiBmaWxsPSJub25lIi8+JiN4YTsgICAgICAgIDxwYXRoIGlkPSJwYXRoNjk4OSIgZD0ibSA3MzMyLDEyNzMyIHYgMjIyNSIgc3Ryb2tlLWxpbmVqb2luPSJyb3VuZCIgc3Ryb2tlLXdpZHRoPSIyMCIgc3Ryb2tlPSIjZmZmZmZmIiBmaWxsPSJub25lIi8+JiN4YTsgICAgICAgIDxwYXRoIGlkPSJwYXRoNjk5MSIgZD0iTSAxMDYyLDEzNDc3IEggNzM0MiIgc3Ryb2tlLWxpbmVqb2luPSJyb3VuZCIgc3Ryb2tlLXdpZHRoPSIyMCIgc3Ryb2tlPSIjZmZmZmZmIiBmaWxsPSJub25lIi8+JiN4YTsgICAgICAgIDxwYXRoIGlkPSJwYXRoNjk5MyIgZD0iTSAxMDYyLDE0MjEyIEggNzM0MiIgc3Ryb2tlLWxpbmVqb2luPSJyb3VuZCIgc3Ryb2tlLXdpZHRoPSIyMCIgc3Ryb2tlPSIjZmZmZmZmIiBmaWxsPSJub25lIi8+JiN4YTsgICAgICAgIDxwYXRoIGlkPSJwYXRoNjk5NSIgZD0iTSAxMDYyLDE0OTQ3IEggNzM0MiIgc3Ryb2tlLWxpbmVqb2luPSJyb3VuZCIgc3Ryb2tlLXdpZHRoPSIyMCIgc3Ryb2tlPSIjZmZmZmZmIiBmaWxsPSJub25lIi8+JiN4YTsgICAgICAgPC9nPjxnIGlkPSJnNzA3NyIgc3R5bGU9Im9wYWNpdHk6MC45OCIgdHJhbnNmb3JtPSJ0cmFuc2xhdGUoMCwtNDI5OS44MTcyKSI+JiN4YTsgICAgICAgIDxyZWN0IGlkPSJyZWN0NzAwMSIgaGVpZ2h0PSIyMjEwIiB3aWR0aD0iNjI2NSIgeT0iMTI2OTgiIHg9Ijk5NTEiIGZpbGw9Im5vbmUiIHN0cm9rZT0ibm9uZSIgY2xhc3M9IkJvdW5kaW5nQm94Ii8+JiN4YTsgICAgICAgIDxwYXRoIGlkPSJwYXRoNzAwMyIgZD0ibSA5OTUzLDEyNzAwIGggMjMxMCB2IDczNSBIIDk5NTMgWiIgc3Ryb2tlPSJub25lIiBmaWxsPSIjZTZlNmU2Ii8+JiN4YTsgICAgICAgIDx0ZXh0IGlkPSJ0ZXh0NzAxMSIgY2xhc3M9IlRleHRTaGFwZSI+PHRzcGFuIGlkPSJ0c3BhbjcwMDkiIGZvbnQtd2VpZ2h0PSI0MDAiIGZvbnQtc2l6ZT0iNDIzcHgiIGZvbnQtZmFtaWx5PSInVGltZXMgTmV3IFJvbWFuJywgc2VyaWYiIGNsYXNzPSJUZXh0UGFyYWdyYXBoIj48dHNwYW4gaWQ9InRzcGFuNzAwNyIgeT0iMTMyMDciIHg9IjEwNDYxIiBjbGFzcz0iVGV4dFBvc2l0aW9uIj48dHNwYW4gaWQ9InRzcGFuNzAwNSIgc3Ryb2tlPSJub25lIiBmaWxsPSIjMDAwMDAwIj5jb21taXQ8L3RzcGFuPjwvdHNwYW4+PC90c3Bhbj48L3RleHQ+JiN4YTsgICAgICAgIDxwYXRoIGlkPSJwYXRoNzAxMyIgZD0ibSAxMjI2MywxMjcwMCBoIDM5NTAgdiA3MzUgaCAtMzk1MCB6IiBzdHJva2U9Im5vbmUiIGZpbGw9IiNlNmU2ZTYiLz4mI3hhOyAgICAgICAgPHRleHQgaWQ9InRleHQ3MDIxIiBjbGFzcz0iVGV4dFNoYXBlIj48dHNwYW4gaWQ9InRzcGFuNzAxOSIgZm9udC13ZWlnaHQ9IjQwMCIgZm9udC1zaXplPSI0MjNweCIgZm9udC1mYW1pbHk9IidUaW1lcyBOZXcgUm9tYW4nLCBzZXJpZiIgY2xhc3M9IlRleHRQYXJhZ3JhcGgiPjx0c3BhbiBpZD0idHNwYW43MDE3IiB5PSIxMzIwNyIgeD0iMTM2MDMiIGNsYXNzPSJUZXh0UG9zaXRpb24iPjx0c3BhbiBpZD0idHNwYW43MDE1IiBzdHJva2U9Im5vbmUiIGZpbGw9IiMwMDAwMDAiPjkyOTk5MzwvdHNwYW4+PC90c3Bhbj48L3RzcGFuPjwvdGV4dD4mI3hhOyAgICAgICAgPHBhdGggaWQ9InBhdGg3MDIzIiBkPSJtIDk5NTMsMTM0MzUgaCAyMzEwIHYgNzM1IEggOTk1MyBaIiBzdHJva2U9Im5vbmUiIGZpbGw9IiNlNmU2ZTYiLz4mI3hhOyAgICAgICAgPHRleHQgaWQ9InRleHQ3MDMxIiBjbGFzcz0iVGV4dFNoYXBlIj48dHNwYW4gaWQ9InRzcGFuNzAyOSIgZm9udC13ZWlnaHQ9IjQwMCIgZm9udC1zaXplPSI0MjNweCIgZm9udC1mYW1pbHk9IidUaW1lcyBOZXcgUm9tYW4nLCBzZXJpZiIgY2xhc3M9IlRleHRQYXJhZ3JhcGgiPjx0c3BhbiBpZD0idHNwYW43MDI3IiB5PSIxMzk0MiIgeD0iMTA3NTciIGNsYXNzPSJUZXh0UG9zaXRpb24iPjx0c3BhbiBpZD0idHNwYW43MDI1IiBzdHJva2U9Im5vbmUiIGZpbGw9IiMwMDAwMDAiPmRhdGU8L3RzcGFuPjwvdHNwYW4+PC90c3Bhbj48L3RleHQ+JiN4YTsgICAgICAgIDxwYXRoIGlkPSJwYXRoNzAzMyIgZD0ibSAxMjI2MywxMzQzNSBoIDM5NTAgdiA3MzUgaCAtMzk1MCB6IiBzdHJva2U9Im5vbmUiIGZpbGw9IiNlNmU2ZTYiLz4mI3hhOyAgICAgICAgPHRleHQgaWQ9InRleHQ3MDQxIiBjbGFzcz0iVGV4dFNoYXBlIj48dHNwYW4gaWQ9InRzcGFuNzAzOSIgZm9udC13ZWlnaHQ9IjQwMCIgZm9udC1zaXplPSI0MjNweCIgZm9udC1mYW1pbHk9IidUaW1lcyBOZXcgUm9tYW4nLCBzZXJpZiIgY2xhc3M9IlRleHRQYXJhZ3JhcGgiPjx0c3BhbiBpZD0idHNwYW43MDM3IiB5PSIxMzk0MiIgeD0iMTI1MTMiIGNsYXNzPSJUZXh0UG9zaXRpb24iPjx0c3BhbiBpZD0idHNwYW43MDM1IiBzdHJva2U9Im5vbmUiIGZpbGw9IiMwMDAwMDAiPjIwOjQ5IDA2LTA3LTIwMjA8L3RzcGFuPjwvdHNwYW4+PC90c3Bhbj48L3RleHQ+JiN4YTsgICAgICAgIDxwYXRoIGlkPSJwYXRoNzA0MyIgZD0ibSA5OTUzLDE0MTcwIGggMjMxMCB2IDczNSBIIDk5NTMgWiIgc3Ryb2tlPSJub25lIiBmaWxsPSIjZTZlNmU2Ii8+JiN4YTsgICAgICAgIDx0ZXh0IGlkPSJ0ZXh0NzA1MSIgY2xhc3M9IlRleHRTaGFwZSI+PHRzcGFuIGlkPSJ0c3BhbjcwNDkiIGZvbnQtd2VpZ2h0PSI0MDAiIGZvbnQtc2l6ZT0iNDIzcHgiIGZvbnQtZmFtaWx5PSInVGltZXMgTmV3IFJvbWFuJywgc2VyaWYiIGNsYXNzPSJUZXh0UGFyYWdyYXBoIj48dHNwYW4gaWQ9InRzcGFuNzA0NyIgeT0iMTQ2NzciIHg9IjEwMzkzIiBjbGFzcz0iVGV4dFBvc2l0aW9uIj48dHNwYW4gaWQ9InRzcGFuNzA0NSIgc3Ryb2tlPSJub25lIiBmaWxsPSIjMDAwMDAwIj5tZXNzYWdlPC90c3Bhbj48L3RzcGFuPjwvdHNwYW4+PC90ZXh0PiYjeGE7ICAgICAgICA8cGF0aCBpZD0icGF0aDcwNTMiIGQ9Im0gMTIyNjMsMTQxNzAgaCAzOTUwIHYgNzM1IGggLTM5NTAgeiIgc3Ryb2tlPSJub25lIiBmaWxsPSIjZTZlNmU2Ii8+JiN4YTsgICAgICAgIDx0ZXh0IGlkPSJ0ZXh0NzA2MSIgY2xhc3M9IlRleHRTaGFwZSI+PHRzcGFuIGlkPSJ0c3BhbjcwNTkiIGZvbnQtd2VpZ2h0PSI0MDAiIGZvbnQtc2l6ZT0iNDIzcHgiIGZvbnQtZmFtaWx5PSInVGltZXMgTmV3IFJvbWFuJywgc2VyaWYiIGNsYXNzPSJUZXh0UGFyYWdyYXBoIj48dHNwYW4gaWQ9InRzcGFuNzA1NyIgeT0iMTQ2NzciIHg9IjEzMjAxIiBjbGFzcz0iVGV4dFBvc2l0aW9uIj48dHNwYW4gaWQ9InRzcGFuNzA1NSIgc3Ryb2tlPSJub25lIiBmaWxsPSIjMDAwMDAwIj5BZGQgcmVhZG1lPC90c3Bhbj48L3RzcGFuPjwvdHNwYW4+PC90ZXh0PiYjeGE7ICAgICAgICA8cGF0aCBpZD0icGF0aDcwNjMiIGQ9Im0gOTk0MywxMjcwMCBoIDYyODAiIHN0cm9rZS1saW5lam9pbj0icm91bmQiIHN0cm9rZS13aWR0aD0iMjAiIHN0cm9rZT0iI2ZmZmZmZiIgZmlsbD0ibm9uZSIvPiYjeGE7ICAgICAgICA8cGF0aCBpZD0icGF0aDcwNjUiIGQ9Im0gOTk1MywxMjY5MCB2IDIyMjUiIHN0cm9rZS1saW5lam9pbj0icm91bmQiIHN0cm9rZS13aWR0aD0iMjAiIHN0cm9rZT0iI2ZmZmZmZiIgZmlsbD0ibm9uZSIvPiYjeGE7ICAgICAgICA8cGF0aCBpZD0icGF0aDcwNjciIGQ9Im0gMTIyNjMsMTI2OTAgdiAyMjI1IiBzdHJva2UtbGluZWpvaW49InJvdW5kIiBzdHJva2Utd2lkdGg9IjIwIiBzdHJva2U9IiNmZmZmZmYiIGZpbGw9Im5vbmUiLz4mI3hhOyAgICAgICAgPHBhdGggaWQ9InBhdGg3MDY5IiBkPSJtIDE2MjEzLDEyNjkwIHYgMjIyNSIgc3Ryb2tlLWxpbmVqb2luPSJyb3VuZCIgc3Ryb2tlLXdpZHRoPSIyMCIgc3Ryb2tlPSIjZmZmZmZmIiBmaWxsPSJub25lIi8+JiN4YTsgICAgICAgIDxwYXRoIGlkPSJwYXRoNzA3MSIgZD0ibSA5OTQzLDEzNDM1IGggNjI4MCIgc3Ryb2tlLWxpbmVqb2luPSJyb3VuZCIgc3Ryb2tlLXdpZHRoPSIyMCIgc3Ryb2tlPSIjZmZmZmZmIiBmaWxsPSJub25lIi8+JiN4YTsgICAgICAgIDxwYXRoIGlkPSJwYXRoNzA3MyIgZD0ibSA5OTQzLDE0MTcwIGggNjI4MCIgc3Ryb2tlLWxpbmVqb2luPSJyb3VuZCIgc3Ryb2tlLXdpZHRoPSIyMCIgc3Ryb2tlPSIjZmZmZmZmIiBmaWxsPSJub25lIi8+JiN4YTsgICAgICAgIDxwYXRoIGlkPSJwYXRoNzA3NSIgZD0ibSA5OTQzLDE0OTA1IGggNjI4MCIgc3Ryb2tlLWxpbmVqb2luPSJyb3VuZCIgc3Ryb2tlLXdpZHRoPSIyMCIgc3Ryb2tlPSIjZmZmZmZmIiBmaWxsPSJub25lIi8+JiN4YTsgICAgICAgPC9nPjxnIGlkPSJnNzE1NyIgc3R5bGU9Im9wYWNpdHk6MC45OCIgdHJhbnNmb3JtPSJ0cmFuc2xhdGUoMCwtNDI5OS44MTcyKSI+JiN4YTsgICAgICAgIDxyZWN0IGlkPSJyZWN0NzA4MSIgaGVpZ2h0PSIyMjEwIiB3aWR0aD0iNjI2NSIgeT0iNzY3NiIgeD0iOTkwMiIgZmlsbD0ibm9uZSIgc3Ryb2tlPSJub25lIiBjbGFzcz0iQm91bmRpbmdCb3giLz4mI3hhOyAgICAgICAgPHBhdGggaWQ9InBhdGg3MDgzIiBkPSJtIDk5MDQsNzY3OCBoIDIzMTAgdiA3MzUgSCA5OTA0IFoiIHN0cm9rZT0ibm9uZSIgZmlsbD0iI2U2ZTZlNiIvPiYjeGE7ICAgICAgICA8dGV4dCBpZD0idGV4dDcwOTEiIGNsYXNzPSJUZXh0U2hhcGUiPjx0c3BhbiBpZD0idHNwYW43MDg5IiBmb250LXdlaWdodD0iNDAwIiBmb250LXNpemU9IjQyM3B4IiBmb250LWZhbWlseT0iJ1RpbWVzIE5ldyBSb21hbicsIHNlcmlmIiBjbGFzcz0iVGV4dFBhcmFncmFwaCI+PHRzcGFuIGlkPSJ0c3BhbjcwODciIHk9IjgxODUiIHg9IjEwNDEyIiBjbGFzcz0iVGV4dFBvc2l0aW9uIj48dHNwYW4gaWQ9InRzcGFuNzA4NSIgc3Ryb2tlPSJub25lIiBmaWxsPSIjMDAwMDAwIj5jb21taXQ8L3RzcGFuPjwvdHNwYW4+PC90c3Bhbj48L3RleHQ+JiN4YTsgICAgICAgIDxwYXRoIGlkPSJwYXRoNzA5MyIgZD0ibSAxMjIxNCw3Njc4IGggMzk1MCB2IDczNSBoIC0zOTUwIHoiIHN0cm9rZT0ibm9uZSIgZmlsbD0iI2U2ZTZlNiIvPiYjeGE7ICAgICAgICA8dGV4dCBpZD0idGV4dDcxMDEiIGNsYXNzPSJUZXh0U2hhcGUiPjx0c3BhbiBpZD0idHNwYW43MDk5IiBmb250LXdlaWdodD0iNDAwIiBmb250LXNpemU9IjQyM3B4IiBmb250LWZhbWlseT0iJ1RpbWVzIE5ldyBSb21hbicsIHNlcmlmIiBjbGFzcz0iVGV4dFBhcmFncmFwaCI+PHRzcGFuIGlkPSJ0c3BhbjcwOTciIHk9IjgxODUiIHg9IjEzNDQ4IiBjbGFzcz0iVGV4dFBvc2l0aW9uIj48dHNwYW4gaWQ9InRzcGFuNzA5NSIgc3Ryb2tlPSJub25lIiBmaWxsPSIjMDAwMDAwIj5kMTBkZDY0PC90c3Bhbj48L3RzcGFuPjwvdHNwYW4+PC90ZXh0PiYjeGE7ICAgICAgICA8cGF0aCBpZD0icGF0aDcxMDMiIGQ9Im0gOTkwNCw4NDEzIGggMjMxMCB2IDczNSBIIDk5MDQgWiIgc3Ryb2tlPSJub25lIiBmaWxsPSIjZTZlNmU2Ii8+JiN4YTsgICAgICAgIDx0ZXh0IGlkPSJ0ZXh0NzExMSIgY2xhc3M9IlRleHRTaGFwZSI+PHRzcGFuIGlkPSJ0c3BhbjcxMDkiIGZvbnQtd2VpZ2h0PSI0MDAiIGZvbnQtc2l6ZT0iNDIzcHgiIGZvbnQtZmFtaWx5PSInVGltZXMgTmV3IFJvbWFuJywgc2VyaWYiIGNsYXNzPSJUZXh0UGFyYWdyYXBoIj48dHNwYW4gaWQ9InRzcGFuNzEwNyIgeT0iODkyMCIgeD0iMTA3MDgiIGNsYXNzPSJUZXh0UG9zaXRpb24iPjx0c3BhbiBpZD0idHNwYW43MTA1IiBzdHJva2U9Im5vbmUiIGZpbGw9IiMwMDAwMDAiPmRhdGU8L3RzcGFuPjwvdHNwYW4+PC90c3Bhbj48L3RleHQ+JiN4YTsgICAgICAgIDxwYXRoIGlkPSJwYXRoNzExMyIgZD0ibSAxMjIxNCw4NDEzIGggMzk1MCB2IDczNSBoIC0zOTUwIHoiIHN0cm9rZT0ibm9uZSIgZmlsbD0iI2U2ZTZlNiIvPiYjeGE7ICAgICAgICA8dGV4dCBpZD0idGV4dDcxMjEiIGNsYXNzPSJUZXh0U2hhcGUiPjx0c3BhbiBpZD0idHNwYW43MTE5IiBmb250LXdlaWdodD0iNDAwIiBmb250LXNpemU9IjQyM3B4IiBmb250LWZhbWlseT0iJ1RpbWVzIE5ldyBSb21hbicsIHNlcmlmIiBjbGFzcz0iVGV4dFBhcmFncmFwaCI+PHRzcGFuIGlkPSJ0c3BhbjcxMTciIHk9Ijg5MjAiIHg9IjEyNjY3IiBjbGFzcz0iVGV4dFBvc2l0aW9uIj48dHNwYW4gaWQ9InRzcGFuNzExNSIgc3Ryb2tlPSJub25lIiBmaWxsPSIjMDAwMDAwIj4yMTowMSAwNi0wNy0yMDIwPC90c3Bhbj48L3RzcGFuPjwvdHNwYW4+PC90ZXh0PiYjeGE7ICAgICAgICA8cGF0aCBpZD0icGF0aDcxMjMiIGQ9Im0gOTkwNCw5MTQ4IGggMjMxMCB2IDczNSBIIDk5MDQgWiIgc3Ryb2tlPSJub25lIiBmaWxsPSIjZTZlNmU2Ii8+JiN4YTsgICAgICAgIDx0ZXh0IGlkPSJ0ZXh0NzEzMSIgY2xhc3M9IlRleHRTaGFwZSI+PHRzcGFuIGlkPSJ0c3BhbjcxMjkiIGZvbnQtd2VpZ2h0PSI0MDAiIGZvbnQtc2l6ZT0iNDIzcHgiIGZvbnQtZmFtaWx5PSInVGltZXMgTmV3IFJvbWFuJywgc2VyaWYiIGNsYXNzPSJUZXh0UGFyYWdyYXBoIj48dHNwYW4gaWQ9InRzcGFuNzEyNyIgeT0iOTY1NSIgeD0iMTAzNDQiIGNsYXNzPSJUZXh0UG9zaXRpb24iPjx0c3BhbiBpZD0idHNwYW43MTI1IiBzdHJva2U9Im5vbmUiIGZpbGw9IiMwMDAwMDAiPm1lc3NhZ2U8L3RzcGFuPjwvdHNwYW4+PC90c3Bhbj48L3RleHQ+JiN4YTsgICAgICAgIDxwYXRoIGlkPSJwYXRoNzEzMyIgZD0ibSAxMjIxNCw5MTQ4IGggMzk1MCB2IDczNSBoIC0zOTUwIHoiIHN0cm9rZT0ibm9uZSIgZmlsbD0iI2U2ZTZlNiIvPiYjeGE7ICAgICAgICA8dGV4dCBpZD0idGV4dDcxNDEiIGNsYXNzPSJUZXh0U2hhcGUiPjx0c3BhbiBpZD0idHNwYW43MTM5IiBmb250LXdlaWdodD0iNDAwIiBmb250LXNpemU9IjQyM3B4IiBmb250LWZhbWlseT0iJ1RpbWVzIE5ldyBSb21hbicsIHNlcmlmIiBjbGFzcz0iVGV4dFBhcmFncmFwaCI+PHRzcGFuIGlkPSJ0c3BhbjcxMzciIHk9Ijk2NTUiIHg9IjEzNTM1IiBjbGFzcz0iVGV4dFBvc2l0aW9uIj48dHNwYW4gaWQ9InRzcGFuNzEzNSIgc3Ryb2tlPSJub25lIiBmaWxsPSIjMDAwMDAwIj5GaXggYnVnPC90c3Bhbj48L3RzcGFuPjwvdHNwYW4+PC90ZXh0PiYjeGE7ICAgICAgICA8cGF0aCBpZD0icGF0aDcxNDMiIGQ9Im0gOTg5NCw3Njc4IGggNjI4MCIgc3Ryb2tlLWxpbmVqb2luPSJyb3VuZCIgc3Ryb2tlLXdpZHRoPSIyMCIgc3Ryb2tlPSIjZmZmZmZmIiBmaWxsPSJub25lIi8+JiN4YTsgICAgICAgIDxwYXRoIGlkPSJwYXRoNzE0NSIgZD0iTSA5OTA0LDc2NjggViA5ODkzIiBzdHJva2UtbGluZWpvaW49InJvdW5kIiBzdHJva2Utd2lkdGg9IjIwIiBzdHJva2U9IiNmZmZmZmYiIGZpbGw9Im5vbmUiLz4mI3hhOyAgICAgICAgPHBhdGggaWQ9InBhdGg3MTQ3IiBkPSJNIDEyMjE0LDc2NjggViA5ODkzIiBzdHJva2UtbGluZWpvaW49InJvdW5kIiBzdHJva2Utd2lkdGg9IjIwIiBzdHJva2U9IiNmZmZmZmYiIGZpbGw9Im5vbmUiLz4mI3hhOyAgICAgICAgPHBhdGggaWQ9InBhdGg3MTQ5IiBkPSJNIDE2MTY0LDc2NjggViA5ODkzIiBzdHJva2UtbGluZWpvaW49InJvdW5kIiBzdHJva2Utd2lkdGg9IjIwIiBzdHJva2U9IiNmZmZmZmYiIGZpbGw9Im5vbmUiLz4mI3hhOyAgICAgICAgPHBhdGggaWQ9InBhdGg3MTUxIiBkPSJtIDk4OTQsODQxMyBoIDYyODAiIHN0cm9rZS1saW5lam9pbj0icm91bmQiIHN0cm9rZS13aWR0aD0iMjAiIHN0cm9rZT0iI2ZmZmZmZiIgZmlsbD0ibm9uZSIvPiYjeGE7ICAgICAgICA8cGF0aCBpZD0icGF0aDcxNTMiIGQ9Im0gOTg5NCw5MTQ4IGggNjI4MCIgc3Ryb2tlLWxpbmVqb2luPSJyb3VuZCIgc3Ryb2tlLXdpZHRoPSIyMCIgc3Ryb2tlPSIjZmZmZmZmIiBmaWxsPSJub25lIi8+JiN4YTsgICAgICAgIDxwYXRoIGlkPSJwYXRoNzE1NSIgZD0ibSA5ODk0LDk4ODMgaCA2MjgwIiBzdHJva2UtbGluZWpvaW49InJvdW5kIiBzdHJva2Utd2lkdGg9IjIwIiBzdHJva2U9IiNmZmZmZmYiIGZpbGw9Im5vbmUiLz4mI3hhOyAgICAgICA8L2c+PGcgaWQ9ImlkMyIgc3R5bGU9Im9wYWNpdHk6MC45OCIgdHJhbnNmb3JtPSJ0cmFuc2xhdGUoMCwtNDI5OS44MTcyKSI+JiN4YTsgICAgICAgIDxyZWN0IGlkPSJyZWN0NzE2MSIgaGVpZ2h0PSIyNzIxIiB3aWR0aD0iMzg2NCIgeT0iMTQ4NjYiIHg9IjM1NjgiIGZpbGw9Im5vbmUiIHN0cm9rZT0ibm9uZSIgY2xhc3M9IkJvdW5kaW5nQm94Ii8+JiN4YTsgICAgICAgIDxwYXRoIGlkPSJwYXRoNzE2MyIgZD0ibSAzNjIxLDE0OTE5IDMyNzEsMjI5MCIgc3Ryb2tlLWxpbmVqb2luPSJyb3VuZCIgc3Ryb2tlLXdpZHRoPSIxMDYiIHN0cm9rZT0iIzM0NjVhNCIgZmlsbD0ibm9uZSIvPiYjeGE7ICAgICAgICA8cGF0aCBpZD0icGF0aDcxNjUiIGQ9Im0gNzQzMSwxNzU4NiAtNDMyLC01ODMgLTI2NCwzNzYgeiIgc3Ryb2tlPSJub25lIiBmaWxsPSIjMzQ2NWE0Ii8+JiN4YTsgICAgICAgPC9nPjxnIGlkPSJpZDQiIHN0eWxlPSJvcGFjaXR5OjAuOTgiIHRyYW5zZm9ybT0idHJhbnNsYXRlKDAsLTQyOTkuODE3MikiPiYjeGE7ICAgICAgICA8cmVjdCBpZD0icmVjdDcxNzAiIGhlaWdodD0iMjcyMSIgd2lkdGg9IjUxMzQiIHk9IjE0ODY2IiB4PSI3NDMxIiBmaWxsPSJub25lIiBzdHJva2U9Im5vbmUiIGNsYXNzPSJCb3VuZGluZ0JveCIvPiYjeGE7ICAgICAgICA8cGF0aCBpZD0icGF0aDcxNzIiIGQ9Ik0gMTI1MTEsMTQ5MTkgODAxMiwxNzI4MSIgc3Ryb2tlLWxpbmVqb2luPSJyb3VuZCIgc3Ryb2tlLXdpZHRoPSIxMDYiIHN0cm9rZT0iIzM0NjVhNCIgZmlsbD0ibm9uZSIvPiYjeGE7ICAgICAgICA8cGF0aCBpZD0icGF0aDcxNzQiIGQ9Im0gNzQzMSwxNzU4NiA3MTUsLTExNyAtMjEzLC00MDUgeiIgc3Ryb2tlPSJub25lIiBmaWxsPSIjMzQ2NWE0Ii8+JiN4YTsgICAgICAgPC9nPjxnIGlkPSJpZDUiIHN0eWxlPSJvcGFjaXR5OjAuOTgiIHRyYW5zZm9ybT0idHJhbnNsYXRlKDAsLTQyOTkuODE3MikiPiYjeGE7ICAgICAgICA8cmVjdCBpZD0icmVjdDcxNzkiIGhlaWdodD0iMjg0OCIgd2lkdGg9IjQ2MSIgeT0iOTc4NiIgeD0iMTIyODEiIGZpbGw9Im5vbmUiIHN0cm9rZT0ibm9uZSIgY2xhc3M9IkJvdW5kaW5nQm94Ii8+JiN4YTsgICAgICAgIDxwYXRoIGlkPSJwYXRoNzE4MSIgZD0ibSAxMjUxMSw5ODM5IHYgMjEzNiIgc3Ryb2tlLWxpbmVqb2luPSJyb3VuZCIgc3Ryb2tlLXdpZHRoPSIxMDYiIHN0cm9rZT0iIzM0NjVhNCIgZmlsbD0ibm9uZSIvPiYjeGE7ICAgICAgICA8cGF0aCBpZD0icGF0aDcxODMiIGQ9Im0gMTI1MTEsMTI2MzMgMjMwLC02ODggaCAtNDU5IHoiIHN0cm9rZT0ibm9uZSIgZmlsbD0iIzM0NjVhNCIvPiYjeGE7ICAgICAgIDwvZz48ZyBpZD0iZzcyODgiIHN0eWxlPSJvcGFjaXR5OjAuOTgiIHRyYW5zZm9ybT0idHJhbnNsYXRlKDAsLTQyOTkuODE3MikiPiYjeGE7ICAgICAgICA8cmVjdCBpZD0icmVjdDcxODgiIGhlaWdodD0iNjAwNCIgd2lkdGg9IjEwMzM4IiB5PSIxMzg1OSIgeD0iMTgxNzkiIGZpbGw9Im5vbmUiIHN0cm9rZT0ibm9uZSIgY2xhc3M9IkJvdW5kaW5nQm94Ii8+JiN4YTsgICAgICAgIDxwYXRoIGlkPSJwYXRoNzE5MCIgZD0ibSAxODE4MSwxMzg2MSBoIDI5OTIgdiAxOTk5IGggLTI5OTIgeiIgc3Ryb2tlPSJub25lIiBmaWxsPSIjYjNiM2IzIi8+JiN4YTsgICAgICAgIDx0ZXh0IGlkPSJ0ZXh0NzE5OCIgY2xhc3M9IlRleHRTaGFwZSI+PHRzcGFuIGlkPSJ0c3BhbjcxOTYiIGZvbnQtd2VpZ2h0PSI0MDAiIGZvbnQtc2l6ZT0iNjM1cHgiIGZvbnQtZmFtaWx5PSInVGltZXMgTmV3IFJvbWFuJywgc2VyaWYiIGNsYXNzPSJUZXh0UGFyYWdyYXBoIj48dHNwYW4gaWQ9InRzcGFuNzE5NCIgeT0iMTQ1NTgiIHg9IjE4Nzc2IiBjbGFzcz0iVGV4dFBvc2l0aW9uIj48dHNwYW4gaWQ9InRzcGFuNzE5MiIgc3Ryb2tlPSJub25lIiBmaWxsPSIjMTU4NDY2Ij5jdXJyZW50PC90c3Bhbj48L3RzcGFuPjwvdHNwYW4+PC90ZXh0PiYjeGE7ICAgICAgICA8cGF0aCBpZD0icGF0aDcyMDAiIGQ9Im0gMjExNzMsMTM4NjEgaCAzMTExIHYgMTk5OSBoIC0zMTExIHoiIHN0cm9rZT0ibm9uZSIgZmlsbD0iI2IzYjNiMyIvPiYjeGE7ICAgICAgICA8dGV4dCBpZD0idGV4dDcyMDgiIGNsYXNzPSJUZXh0U2hhcGUiPjx0c3BhbiBpZD0idHNwYW43MjA2IiBmb250LXdlaWdodD0iNDAwIiBmb250LXNpemU9IjYzNXB4IiBmb250LWZhbWlseT0iJ1RpbWVzIE5ldyBSb21hbicsIHNlcmlmIiBjbGFzcz0iVGV4dFBhcmFncmFwaCI+PHRzcGFuIGlkPSJ0c3BhbjcyMDQiIHk9IjE0NTU4IiB4PSIyMTg2MyIgY2xhc3M9IlRleHRQb3NpdGlvbiI+PHRzcGFuIGlkPSJ0c3BhbjcyMDIiIHN0cm9rZT0ibm9uZSIgZmlsbD0iIzE1ODQ2NiI+YnJhbmNoPC90c3Bhbj48L3RzcGFuPjwvdHNwYW4+PC90ZXh0PiYjeGE7ICAgICAgICA8cGF0aCBpZD0icGF0aDcyMTAiIGQ9Im0gMjQyODQsMTM4NjEgaCA0MjMwIHYgMTk5OSBoIC00MjMwIHoiIHN0cm9rZT0ibm9uZSIgZmlsbD0iI2IzYjNiMyIvPiYjeGE7ICAgICAgICA8dGV4dCBpZD0idGV4dDcyMTgiIGNsYXNzPSJUZXh0U2hhcGUiPjx0c3BhbiBpZD0idHNwYW43MjE2IiBmb250LXdlaWdodD0iNDAwIiBmb250LXNpemU9IjYzNXB4IiBmb250LWZhbWlseT0iJ1RpbWVzIE5ldyBSb21hbicsIHNlcmlmIiBjbGFzcz0iVGV4dFBhcmFncmFwaCI+PHRzcGFuIGlkPSJ0c3BhbjcyMTQiIHk9IjE0NTU4IiB4PSIyNTQyNiIgY2xhc3M9IlRleHRQb3NpdGlvbiI+PHRzcGFuIGlkPSJ0c3BhbjcyMTIiIHN0cm9rZT0ibm9uZSIgZmlsbD0iIzE1ODQ2NiI+Y29tbWl0PC90c3Bhbj48L3RzcGFuPjwvdHNwYW4+PC90ZXh0PiYjeGE7ICAgICAgICA8cGF0aCBpZD0icGF0aDcyMjAiIGQ9Im0gMTgxODEsMTU4NjAgaCAyOTkyIHYgMTk5OSBoIC0yOTkyIHoiIHN0cm9rZT0ibm9uZSIgZmlsbD0iI2U2ZTZlNiIvPiYjeGE7ICAgICAgICA8cGF0aCBpZD0icGF0aDcyMjIiIGQ9Im0gMjExNzMsMTU4NjAgaCAzMTExIHYgMTk5OSBoIC0zMTExIHoiIHN0cm9rZT0ibm9uZSIgZmlsbD0iI2U2ZTZlNiIvPiYjeGE7ICAgICAgICA8dGV4dCBpZD0idGV4dDcyMzAiIGNsYXNzPSJUZXh0U2hhcGUiPjx0c3BhbiBpZD0idHNwYW43MjI4IiBmb250LXdlaWdodD0iNDAwIiBmb250LXNpemU9IjYzNXB4IiBmb250LWZhbWlseT0iJ1RpbWVzIE5ldyBSb21hbicsIHNlcmlmIiBjbGFzcz0iVGV4dFBhcmFncmFwaCI+PHRzcGFuIGlkPSJ0c3BhbjcyMjYiIHk9IjE2NTU3IiB4PSIyMTg4MCIgY2xhc3M9IlRleHRQb3NpdGlvbiI+PHRzcGFuIGlkPSJ0c3BhbjcyMjQiIHN0cm9rZT0ibm9uZSIgZmlsbD0iIzE1ODQ2NiI+bWFzdGVyPC90c3Bhbj48L3RzcGFuPjwvdHNwYW4+PC90ZXh0PiYjeGE7ICAgICAgICA8cGF0aCBpZD0icGF0aDcyMzIiIGQ9Im0gMjQyODQsMTU4NjAgaCA0MjMwIHYgMTk5OSBoIC00MjMwIHoiIHN0cm9rZT0ibm9uZSIgZmlsbD0iI2U2ZTZlNiIvPiYjeGE7ICAgICAgICA8dGV4dCBpZD0idGV4dDcyNDAiIGNsYXNzPSJUZXh0U2hhcGUiPjx0c3BhbiBpZD0idHNwYW43MjM4IiBmb250LXdlaWdodD0iNDAwIiBmb250LXNpemU9IjYzNXB4IiBmb250LWZhbWlseT0iJ1RpbWVzIE5ldyBSb21hbicsIHNlcmlmIiBjbGFzcz0iVGV4dFBhcmFncmFwaCI+PHRzcGFuIGlkPSJ0c3BhbjcyMzYiIHk9IjE2NTU3IiB4PSIyNTI4OCIgY2xhc3M9IlRleHRQb3NpdGlvbiI+PHRzcGFuIGlkPSJ0c3BhbjcyMzQiIHN0cm9rZT0ibm9uZSIgZmlsbD0iIzE1ODQ2NiI+ZDEwZGQ2NDwvdHNwYW4+PC90c3Bhbj48L3RzcGFuPjwvdGV4dD4mI3hhOyAgICAgICAgPHBhdGggaWQ9InBhdGg3MjQyIiBkPSJtIDE4MTgxLDE3ODU5IGggMjk5MiB2IDIwMDEgaCAtMjk5MiB6IiBzdHJva2U9Im5vbmUiIGZpbGw9IiNlNmU2ZTYiLz4mI3hhOyAgICAgICAgPHRleHQgaWQ9InRleHQ3MjUwIiBjbGFzcz0iVGV4dFNoYXBlIj48dHNwYW4gaWQ9InRzcGFuNzI0OCIgZm9udC13ZWlnaHQ9IjcwMCIgZm9udC1zaXplPSI2MzVweCIgZm9udC1mYW1pbHk9IidUaW1lcyBOZXcgUm9tYW4nLCBzZXJpZiIgY2xhc3M9IlRleHRQYXJhZ3JhcGgiPjx0c3BhbiBpZD0idHNwYW43MjQ2IiB5PSIxODU1NiIgeD0iMTk1MTgiIGNsYXNzPSJUZXh0UG9zaXRpb24iPjx0c3BhbiBpZD0idHNwYW43MjQ0IiBzdHJva2U9Im5vbmUiIGZpbGw9IiMxNTg0NjYiPio8L3RzcGFuPjwvdHNwYW4+PC90c3Bhbj48L3RleHQ+JiN4YTsgICAgICAgIDxwYXRoIGlkPSJwYXRoNzI1MiIgZD0ibSAyMTE3MywxNzg1OSBoIDMxMTEgdiAyMDAxIGggLTMxMTEgeiIgc3Ryb2tlPSJub25lIiBmaWxsPSIjZTZlNmU2Ii8+JiN4YTsgICAgICAgIDx0ZXh0IGlkPSJ0ZXh0NzI2MCIgY2xhc3M9IlRleHRTaGFwZSI+PHRzcGFuIGlkPSJ0c3BhbjcyNTgiIGZvbnQtd2VpZ2h0PSI0MDAiIGZvbnQtc2l6ZT0iNjM1cHgiIGZvbnQtZmFtaWx5PSInVGltZXMgTmV3IFJvbWFuJywgc2VyaWYiIGNsYXNzPSJUZXh0UGFyYWdyYXBoIj48dHNwYW4gaWQ9InRzcGFuNzI1NiIgeT0iMTg1NTYiIHg9IjIyMTk3IiBjbGFzcz0iVGV4dFBvc2l0aW9uIj48dHNwYW4gaWQ9InRzcGFuNzI1NCIgc3Ryb2tlPSJub25lIiBmaWxsPSIjMTU4NDY2Ij5pZGVhPC90c3Bhbj48L3RzcGFuPjwvdHNwYW4+PC90ZXh0PiYjeGE7ICAgICAgICA8cGF0aCBpZD0icGF0aDcyNjIiIGQ9Im0gMjQyODQsMTc4NTkgaCA0MjMwIHYgMjAwMSBoIC00MjMwIHoiIHN0cm9rZT0ibm9uZSIgZmlsbD0iI2U2ZTZlNiIvPiYjeGE7ICAgICAgICA8dGV4dCBpZD0idGV4dDcyNzAiIGNsYXNzPSJUZXh0U2hhcGUiPjx0c3BhbiBpZD0idHNwYW43MjY4IiBmb250LXdlaWdodD0iNDAwIiBmb250LXNpemU9IjYzNXB4IiBmb250LWZhbWlseT0iJ1RpbWVzIE5ldyBSb21hbicsIHNlcmlmIiBjbGFzcz0iVGV4dFBhcmFncmFwaCI+PHRzcGFuIGlkPSJ0c3BhbjcyNjYiIHk9IjE4NTU2IiB4PSIyNTMyMiIgY2xhc3M9IlRleHRQb3NpdGlvbiI+PHRzcGFuIGlkPSJ0c3BhbjcyNjQiIHN0cm9rZT0ibm9uZSIgZmlsbD0iIzE1ODQ2NiI+NWE5NWM0NTwvdHNwYW4+PC90c3Bhbj48L3RzcGFuPjwvdGV4dD4mI3hhOyAgICAgICAgPHBhdGggaWQ9InBhdGg3MjcyIiBkPSJNIDE4MTcxLDEzODYxIEggMjg1MjQiIHN0cm9rZS1saW5lam9pbj0icm91bmQiIHN0cm9rZS13aWR0aD0iMjAiIHN0cm9rZT0iI2ZmZmZmZiIgZmlsbD0ibm9uZSIvPiYjeGE7ICAgICAgICA8cGF0aCBpZD0icGF0aDcyNzQiIGQ9Im0gMTgxODEsMTM4NTEgdiA2MDE5IiBzdHJva2UtbGluZWpvaW49InJvdW5kIiBzdHJva2Utd2lkdGg9IjIwIiBzdHJva2U9IiNmZmZmZmYiIGZpbGw9Im5vbmUiLz4mI3hhOyAgICAgICAgPHBhdGggaWQ9InBhdGg3Mjc2IiBkPSJtIDIxMTczLDEzODUxIHYgNjAxOSIgc3Ryb2tlLWxpbmVqb2luPSJyb3VuZCIgc3Ryb2tlLXdpZHRoPSIyMCIgc3Ryb2tlPSIjZmZmZmZmIiBmaWxsPSJub25lIi8+JiN4YTsgICAgICAgIDxwYXRoIGlkPSJwYXRoNzI3OCIgZD0ibSAyNDI4NCwxMzg1MSB2IDYwMTkiIHN0cm9rZS1saW5lam9pbj0icm91bmQiIHN0cm9rZS13aWR0aD0iMjAiIHN0cm9rZT0iI2ZmZmZmZiIgZmlsbD0ibm9uZSIvPiYjeGE7ICAgICAgICA8cGF0aCBpZD0icGF0aDcyODAiIGQ9Im0gMjg1MTQsMTM4NTEgdiA2MDE5IiBzdHJva2UtbGluZWpvaW49InJvdW5kIiBzdHJva2Utd2lkdGg9IjIwIiBzdHJva2U9IiNmZmZmZmYiIGZpbGw9Im5vbmUiLz4mI3hhOyAgICAgICAgPHBhdGggaWQ9InBhdGg3MjgyIiBkPSJNIDE4MTcxLDE1ODYwIEggMjg1MjQiIHN0cm9rZS1saW5lam9pbj0icm91bmQiIHN0cm9rZS13aWR0aD0iMjAiIHN0cm9rZT0iI2ZmZmZmZiIgZmlsbD0ibm9uZSIvPiYjeGE7ICAgICAgICA8cGF0aCBpZD0icGF0aDcyODQiIGQ9Ik0gMTgxNzEsMTc4NTkgSCAyODUyNCIgc3Ryb2tlLWxpbmVqb2luPSJyb3VuZCIgc3Ryb2tlLXdpZHRoPSIyMCIgc3Ryb2tlPSIjZmZmZmZmIiBmaWxsPSJub25lIi8+JiN4YTsgICAgICAgIDxwYXRoIGlkPSJwYXRoNzI4NiIgZD0iTSAxODE3MSwxOTg2MCBIIDI4NTI0IiBzdHJva2UtbGluZWpvaW49InJvdW5kIiBzdHJva2Utd2lkdGg9IjIwIiBzdHJva2U9IiNmZmZmZmYiIGZpbGw9Im5vbmUiLz4mI3hhOyAgICAgICA8L2c+JiN4YTs8L3N2Zz4=;" vertex="1" parent="1">
          <mxGeometry x="750" y="40" width="775" height="346.64" as="geometry" />
        </mxCell>
        <mxCell id="Ew93AZ5DGdFRE2sciLYH-36" value="" style="verticalLabelPosition=bottom;verticalAlign=top;html=1;strokeWidth=4;shape=mxgraph.flowchart.on-page_reference;plain-blue;gradientColor=none;fillColor=#B5E3Fe;strokeColor=#000000;" vertex="1" parent="1">
          <mxGeometry x="640" y="506" width="30" height="30" as="geometry" />
        </mxCell>
        <mxCell id="Ew93AZ5DGdFRE2sciLYH-37" value="d10dd64" style="text;html=1;strokeColor=none;fillColor=none;align=center;verticalAlign=middle;whiteSpace=wrap;overflow=hidden;fontSize=14;" vertex="1" parent="1">
          <mxGeometry x="620" y="480" width="70" height="20" as="geometry" />
        </mxCell>
        <mxCell id="Ew93AZ5DGdFRE2sciLYH-39" style="edgeStyle=orthogonalEdgeStyle;curved=1;rounded=0;html=1;exitX=1;exitY=0.5;exitPerimeter=0;endArrow=none;endFill=0;jettySize=auto;orthogonalLoop=1;strokeWidth=4;fontSize=15;entryX=0;entryY=0.5;entryDx=0;entryDy=0;entryPerimeter=0;" edge="1" parent="1">
          <mxGeometry relative="1" as="geometry">
            <mxPoint x="294.12" y="536" as="sourcePoint" />
            <mxPoint x="355.6199999999999" y="685" as="targetPoint" />
            <Array as="points">
              <mxPoint x="294" y="680" />
              <mxPoint x="330" y="680" />
              <mxPoint x="330" y="696" />
              <mxPoint x="356" y="696" />
            </Array>
          </mxGeometry>
        </mxCell>
        <UserObject label="Ejercicio 2" id="Ew93AZ5DGdFRE2sciLYH-40">
          <mxCell style="text;whiteSpace=wrap;html=1;fontStyle=1;fontSize=16;" vertex="1" parent="1">
            <mxGeometry x="86.75" y="850" width="427.75" height="20" as="geometry" />
          </mxCell>
        </UserObject>
        <mxCell id="Ew93AZ5DGdFRE2sciLYH-41" value="" style="edgeStyle=orthogonalEdgeStyle;rounded=0;html=1;jettySize=auto;orthogonalLoop=1;plain-blue;endArrow=none;endFill=0;strokeWidth=4;strokeColor=#000000;entryX=0;entryY=0.5;entryDx=0;entryDy=0;entryPerimeter=0;" edge="1" parent="1" source="Ew93AZ5DGdFRE2sciLYH-43">
          <mxGeometry x="302.37" y="1031" as="geometry">
            <mxPoint x="462.37" y="1031" as="targetPoint" />
          </mxGeometry>
        </mxCell>
        <mxCell id="Ew93AZ5DGdFRE2sciLYH-42" style="edgeStyle=orthogonalEdgeStyle;curved=1;rounded=0;html=1;exitX=1;exitY=0.5;exitPerimeter=0;entryX=0;entryY=0.5;entryPerimeter=0;endArrow=none;endFill=0;jettySize=auto;orthogonalLoop=1;strokeWidth=4;fontSize=15;" edge="1" parent="1" source="Ew93AZ5DGdFRE2sciLYH-43" target="Ew93AZ5DGdFRE2sciLYH-46">
          <mxGeometry relative="1" as="geometry" />
        </mxCell>
        <mxCell id="Ew93AZ5DGdFRE2sciLYH-43" value="" style="verticalLabelPosition=bottom;verticalAlign=top;html=1;strokeWidth=4;shape=mxgraph.flowchart.on-page_reference;plain-blue;gradientColor=none;fillColor=#B5E3Fe;strokeColor=#000000;" vertex="1" parent="1">
          <mxGeometry x="272.37" y="1016" width="30" height="30" as="geometry" />
        </mxCell>
        <mxCell id="Ew93AZ5DGdFRE2sciLYH-44" value="" style="edgeStyle=orthogonalEdgeStyle;rounded=0;html=1;jettySize=auto;orthogonalLoop=1;strokeWidth=4;endArrow=none;endFill=0;" edge="1" parent="1" target="Ew93AZ5DGdFRE2sciLYH-43">
          <mxGeometry x="202.37" y="1031" as="geometry">
            <mxPoint x="160.12" y="1031" as="sourcePoint" />
          </mxGeometry>
        </mxCell>
        <mxCell id="Ew93AZ5DGdFRE2sciLYH-45" value="master" style="text;html=1;strokeColor=none;fillColor=none;align=center;verticalAlign=middle;whiteSpace=wrap;overflow=hidden;fontSize=14;fontStyle=1;fontFamily=Courier New;" vertex="1" parent="1">
          <mxGeometry x="93.12" y="1010" width="50" height="42" as="geometry" />
        </mxCell>
        <mxCell id="Ew93AZ5DGdFRE2sciLYH-46" value="" style="verticalLabelPosition=bottom;verticalAlign=top;html=1;strokeWidth=4;shape=mxgraph.flowchart.on-page_reference;plain-purple;gradientColor=none;strokeColor=#000000;fillColor=#D5E8D4;" vertex="1" parent="1">
          <mxGeometry x="349.87" y="1101" width="30" height="30" as="geometry" />
        </mxCell>
        <mxCell id="Ew93AZ5DGdFRE2sciLYH-47" value="idea" style="text;html=1;strokeColor=none;fillColor=none;align=left;verticalAlign=middle;whiteSpace=wrap;overflow=hidden;fontSize=14;fontStyle=1;fontFamily=Courier New;" vertex="1" parent="1">
          <mxGeometry x="98.87" y="1106" width="240" height="20" as="geometry" />
        </mxCell>
        <mxCell id="Ew93AZ5DGdFRE2sciLYH-48" value="Primera rama creada" style="text;html=1;strokeColor=none;fillColor=none;align=left;verticalAlign=middle;whiteSpace=wrap;overflow=hidden;fontSize=14;fontStyle=0;fontColor=#009900;" vertex="1" parent="1">
          <mxGeometry x="96.87" y="1126" width="240" height="20" as="geometry" />
        </mxCell>
        <mxCell id="Ew93AZ5DGdFRE2sciLYH-49" value="The main branch&lt;br&gt;" style="text;html=1;strokeColor=none;fillColor=none;align=left;verticalAlign=middle;whiteSpace=wrap;overflow=hidden;fontSize=14;fontStyle=0;fontColor=#009900;" vertex="1" parent="1">
          <mxGeometry x="98.37" y="1040" width="146.75" height="20" as="geometry" />
        </mxCell>
        <mxCell id="Ew93AZ5DGdFRE2sciLYH-50" value="" style="endArrow=classic;html=1;strokeWidth=1;fontFamily=Courier New;fontColor=#009900;" edge="1" parent="1">
          <mxGeometry width="50" height="50" relative="1" as="geometry">
            <mxPoint x="226.87" y="1116" as="sourcePoint" />
            <mxPoint x="306.87" y="1116" as="targetPoint" />
          </mxGeometry>
        </mxCell>
        <mxCell id="Ew93AZ5DGdFRE2sciLYH-51" value="360e40d" style="text;html=1;strokeColor=none;fillColor=none;align=center;verticalAlign=middle;whiteSpace=wrap;overflow=hidden;fontSize=14;" vertex="1" parent="1">
          <mxGeometry x="252.37" y="990" width="70" height="20" as="geometry" />
        </mxCell>
        <mxCell id="Ew93AZ5DGdFRE2sciLYH-52" value="" style="edgeStyle=orthogonalEdgeStyle;rounded=0;orthogonalLoop=1;jettySize=auto;html=1;fontSize=15;endArrow=none;endFill=0;strokeWidth=4;entryX=0;entryY=0.5;entryDx=0;entryDy=0;entryPerimeter=0;" edge="1" parent="1">
          <mxGeometry relative="1" as="geometry">
            <mxPoint x="632.37" y="1031" as="targetPoint" />
            <mxPoint x="492.37" y="1031" as="sourcePoint" />
          </mxGeometry>
        </mxCell>
        <mxCell id="Ew93AZ5DGdFRE2sciLYH-53" value="929993" style="text;html=1;strokeColor=none;fillColor=none;align=center;verticalAlign=middle;whiteSpace=wrap;overflow=hidden;fontSize=14;" vertex="1" parent="1">
          <mxGeometry x="438.62" y="990" width="70" height="20" as="geometry" />
        </mxCell>
        <mxCell id="Ew93AZ5DGdFRE2sciLYH-54" value="5a95c45" style="text;html=1;strokeColor=none;fillColor=none;align=center;verticalAlign=middle;whiteSpace=wrap;overflow=hidden;fontSize=14;" vertex="1" parent="1">
          <mxGeometry x="329.87" y="1076" width="70" height="20" as="geometry" />
        </mxCell>
        <mxCell id="Ew93AZ5DGdFRE2sciLYH-55" value="" style="verticalLabelPosition=bottom;verticalAlign=top;html=1;strokeWidth=4;shape=mxgraph.flowchart.on-page_reference;plain-blue;gradientColor=none;fillColor=#B5E3Fe;strokeColor=#000000;" vertex="1" parent="1">
          <mxGeometry x="462.37" y="1016" width="30" height="30" as="geometry" />
        </mxCell>
        <mxCell id="Ew93AZ5DGdFRE2sciLYH-56" value="" style="verticalLabelPosition=bottom;verticalAlign=top;html=1;strokeWidth=4;shape=mxgraph.flowchart.on-page_reference;plain-blue;gradientColor=none;fillColor=#B5E3Fe;strokeColor=#000000;" vertex="1" parent="1">
          <mxGeometry x="630.12" y="1016" width="30" height="30" as="geometry" />
        </mxCell>
        <mxCell id="Ew93AZ5DGdFRE2sciLYH-57" value="d10dd64" style="text;html=1;strokeColor=none;fillColor=none;align=center;verticalAlign=middle;whiteSpace=wrap;overflow=hidden;fontSize=14;" vertex="1" parent="1">
          <mxGeometry x="610.12" y="990" width="70" height="20" as="geometry" />
        </mxCell>
        <mxCell id="Ew93AZ5DGdFRE2sciLYH-58" value="&lt;b&gt;HEAD&lt;/b&gt;" style="html=1;verticalLabelPosition=bottom;labelBackgroundColor=#ffffff;verticalAlign=top;shadow=0;dashed=0;strokeWidth=2;shape=mxgraph.ios7.misc.up;strokeColor=#0080f0;rotation=-30;" vertex="1" parent="1">
          <mxGeometry x="850" y="1046" width="40" height="40" as="geometry" />
        </mxCell>
        <mxCell id="Ew93AZ5DGdFRE2sciLYH-60" value="" style="verticalLabelPosition=bottom;verticalAlign=top;html=1;strokeWidth=4;shape=mxgraph.flowchart.on-page_reference;fillColor=#ffe6cc;strokeColor=#d79b00;" vertex="1" parent="1">
          <mxGeometry x="820" y="1016" width="30" height="30" as="geometry" />
        </mxCell>
        <mxCell id="Ew93AZ5DGdFRE2sciLYH-63" value="" style="edgeStyle=orthogonalEdgeStyle;rounded=0;html=1;jettySize=auto;orthogonalLoop=1;plain-blue;endArrow=none;endFill=0;strokeWidth=4;strokeColor=#000000;entryX=0;entryY=0.5;entryDx=0;entryDy=0;entryPerimeter=0;" edge="1" parent="1">
          <mxGeometry x="660.49" y="1030.5" as="geometry">
            <mxPoint x="820.49" y="1030.5" as="targetPoint" />
            <mxPoint x="660.12" y="1030.5" as="sourcePoint" />
          </mxGeometry>
        </mxCell>
        <mxCell id="Ew93AZ5DGdFRE2sciLYH-64" style="edgeStyle=orthogonalEdgeStyle;curved=1;rounded=0;html=1;entryX=0.5;entryY=1;entryPerimeter=0;endArrow=none;endFill=0;jettySize=auto;orthogonalLoop=1;strokeWidth=4;fontSize=15;entryDx=0;entryDy=0;exitX=0.855;exitY=0.145;exitDx=0;exitDy=0;exitPerimeter=0;" edge="1" parent="1" source="Ew93AZ5DGdFRE2sciLYH-46" target="Ew93AZ5DGdFRE2sciLYH-60">
          <mxGeometry relative="1" as="geometry">
            <mxPoint x="390" y="1120" as="sourcePoint" />
            <mxPoint x="428" y="1195" as="targetPoint" />
            <Array as="points">
              <mxPoint x="380" y="1105" />
              <mxPoint x="380" y="1130" />
              <mxPoint x="835" y="1130" />
            </Array>
          </mxGeometry>
        </mxCell>
        <mxCell id="Ew93AZ5DGdFRE2sciLYH-65" value="k65fd76" style="text;html=1;strokeColor=none;fillColor=none;align=center;verticalAlign=middle;whiteSpace=wrap;overflow=hidden;fontSize=14;" vertex="1" parent="1">
          <mxGeometry x="800" y="990" width="70" height="20" as="geometry" />
        </mxCell>
        <UserObject label="Ejercicio 1" link="https://nvie.com/posts/a-successful-git-branching-model/" id="Ew93AZ5DGdFRE2sciLYH-67">
          <mxCell style="text;whiteSpace=wrap;html=1;fontStyle=1;fontSize=16;" vertex="1" parent="1">
            <mxGeometry x="80.86999999999999" y="405" width="427.75" height="20" as="geometry" />
          </mxCell>
        </UserObject>
        <mxCell id="Ew93AZ5DGdFRE2sciLYH-68" value="" style="edgeStyle=orthogonalEdgeStyle;rounded=0;html=1;jettySize=auto;orthogonalLoop=1;plain-blue;endArrow=none;endFill=0;strokeWidth=4;strokeColor=#000000;entryX=0;entryY=0.5;entryDx=0;entryDy=0;entryPerimeter=0;" edge="1" parent="1" source="Ew93AZ5DGdFRE2sciLYH-70">
          <mxGeometry x="262.37" y="1581" as="geometry">
            <mxPoint x="422.37" y="1581" as="targetPoint" />
          </mxGeometry>
        </mxCell>
        <mxCell id="Ew93AZ5DGdFRE2sciLYH-70" value="" style="verticalLabelPosition=bottom;verticalAlign=top;html=1;strokeWidth=4;shape=mxgraph.flowchart.on-page_reference;plain-blue;gradientColor=none;fillColor=#B5E3Fe;strokeColor=#000000;" vertex="1" parent="1">
          <mxGeometry x="232.37" y="1566" width="30" height="30" as="geometry" />
        </mxCell>
        <mxCell id="Ew93AZ5DGdFRE2sciLYH-71" value="" style="edgeStyle=orthogonalEdgeStyle;rounded=0;html=1;jettySize=auto;orthogonalLoop=1;strokeWidth=4;endArrow=none;endFill=0;" edge="1" parent="1" target="Ew93AZ5DGdFRE2sciLYH-70">
          <mxGeometry x="162.37" y="1581" as="geometry">
            <mxPoint x="120.12" y="1581" as="sourcePoint" />
          </mxGeometry>
        </mxCell>
        <mxCell id="Ew93AZ5DGdFRE2sciLYH-72" value="master," style="text;html=1;strokeColor=none;fillColor=none;align=center;verticalAlign=middle;whiteSpace=wrap;overflow=hidden;fontSize=14;fontStyle=1;fontFamily=Courier New;" vertex="1" parent="1">
          <mxGeometry x="8.370000000000005" y="1554" width="50" height="42" as="geometry" />
        </mxCell>
        <mxCell id="Ew93AZ5DGdFRE2sciLYH-74" value="idea" style="text;html=1;strokeColor=none;fillColor=none;align=left;verticalAlign=middle;whiteSpace=wrap;overflow=hidden;fontSize=14;fontStyle=1;fontFamily=Courier New;" vertex="1" parent="1">
          <mxGeometry x="62.370000000000005" y="1566" width="240" height="20" as="geometry" />
        </mxCell>
        <mxCell id="Ew93AZ5DGdFRE2sciLYH-78" value="360e40d" style="text;html=1;strokeColor=none;fillColor=none;align=center;verticalAlign=middle;whiteSpace=wrap;overflow=hidden;fontSize=14;" vertex="1" parent="1">
          <mxGeometry x="212.37" y="1540" width="70" height="20" as="geometry" />
        </mxCell>
        <mxCell id="Ew93AZ5DGdFRE2sciLYH-79" value="" style="edgeStyle=orthogonalEdgeStyle;rounded=0;orthogonalLoop=1;jettySize=auto;html=1;fontSize=15;endArrow=none;endFill=0;strokeWidth=4;entryX=0;entryY=0.5;entryDx=0;entryDy=0;entryPerimeter=0;" edge="1" parent="1">
          <mxGeometry relative="1" as="geometry">
            <mxPoint x="592.37" y="1581" as="targetPoint" />
            <mxPoint x="452.37" y="1581" as="sourcePoint" />
          </mxGeometry>
        </mxCell>
        <mxCell id="Ew93AZ5DGdFRE2sciLYH-80" value="929993" style="text;html=1;strokeColor=none;fillColor=none;align=center;verticalAlign=middle;whiteSpace=wrap;overflow=hidden;fontSize=14;" vertex="1" parent="1">
          <mxGeometry x="398.62" y="1540" width="70" height="20" as="geometry" />
        </mxCell>
        <mxCell id="Ew93AZ5DGdFRE2sciLYH-82" value="" style="verticalLabelPosition=bottom;verticalAlign=top;html=1;strokeWidth=4;shape=mxgraph.flowchart.on-page_reference;plain-blue;gradientColor=none;fillColor=#B5E3Fe;strokeColor=#000000;" vertex="1" parent="1">
          <mxGeometry x="422.37" y="1566" width="30" height="30" as="geometry" />
        </mxCell>
        <mxCell id="Ew93AZ5DGdFRE2sciLYH-83" value="" style="verticalLabelPosition=bottom;verticalAlign=top;html=1;strokeWidth=4;shape=mxgraph.flowchart.on-page_reference;plain-blue;gradientColor=none;fillColor=#B5E3Fe;strokeColor=#000000;" vertex="1" parent="1">
          <mxGeometry x="590.12" y="1566" width="30" height="30" as="geometry" />
        </mxCell>
        <mxCell id="Ew93AZ5DGdFRE2sciLYH-84" value="d10dd64" style="text;html=1;strokeColor=none;fillColor=none;align=center;verticalAlign=middle;whiteSpace=wrap;overflow=hidden;fontSize=14;" vertex="1" parent="1">
          <mxGeometry x="570.12" y="1540" width="70" height="20" as="geometry" />
        </mxCell>
        <UserObject label="Ejercicio 3" id="Ew93AZ5DGdFRE2sciLYH-91">
          <mxCell style="text;whiteSpace=wrap;html=1;fontStyle=1;fontSize=16;" vertex="1" parent="1">
            <mxGeometry x="77.88" y="1470" width="427.75" height="20" as="geometry" />
          </mxCell>
        </UserObject>
        <mxCell id="Ew93AZ5DGdFRE2sciLYH-92" value="&lt;b&gt;HEAD&lt;/b&gt;" style="html=1;verticalLabelPosition=bottom;labelBackgroundColor=#ffffff;verticalAlign=top;shadow=0;dashed=0;strokeWidth=2;shape=mxgraph.ios7.misc.up;strokeColor=#0080f0;rotation=-180;" vertex="1" parent="1">
          <mxGeometry x="590.12" y="1480" width="40" height="49.37" as="geometry" />
        </mxCell>
        <mxCell id="Ew93AZ5DGdFRE2sciLYH-114" value="Text" style="text;html=1;strokeColor=none;fillColor=none;align=center;verticalAlign=middle;whiteSpace=wrap;rounded=0;" vertex="1" parent="1">
          <mxGeometry x="780" y="1150" width="60" height="30" as="geometry" />
        </mxCell>
        <mxCell id="Ew93AZ5DGdFRE2sciLYH-115" value="3-way" style="text;html=1;strokeColor=none;fillColor=none;align=center;verticalAlign=middle;whiteSpace=wrap;rounded=0;fontStyle=1" vertex="1" parent="1">
          <mxGeometry x="93.12" y="920" width="60" height="30" as="geometry" />
        </mxCell>
        <mxCell id="Ew93AZ5DGdFRE2sciLYH-116" value="" style="edgeStyle=orthogonalEdgeStyle;rounded=0;html=1;jettySize=auto;orthogonalLoop=1;plain-blue;endArrow=none;endFill=0;strokeWidth=4;strokeColor=#000000;entryX=0;entryY=0.5;entryDx=0;entryDy=0;entryPerimeter=0;" edge="1" parent="1" source="Ew93AZ5DGdFRE2sciLYH-118">
          <mxGeometry x="262.37" y="1315" as="geometry">
            <mxPoint x="422.37" y="1315" as="targetPoint" />
          </mxGeometry>
        </mxCell>
        <mxCell id="Ew93AZ5DGdFRE2sciLYH-118" value="" style="verticalLabelPosition=bottom;verticalAlign=top;html=1;strokeWidth=4;shape=mxgraph.flowchart.on-page_reference;plain-blue;gradientColor=none;fillColor=#B5E3Fe;strokeColor=#000000;" vertex="1" parent="1">
          <mxGeometry x="232.37" y="1300" width="30" height="30" as="geometry" />
        </mxCell>
        <mxCell id="Ew93AZ5DGdFRE2sciLYH-119" value="" style="edgeStyle=orthogonalEdgeStyle;rounded=0;html=1;jettySize=auto;orthogonalLoop=1;strokeWidth=4;endArrow=none;endFill=0;" edge="1" parent="1" target="Ew93AZ5DGdFRE2sciLYH-118">
          <mxGeometry x="162.37" y="1315" as="geometry">
            <mxPoint x="120.12" y="1315" as="sourcePoint" />
          </mxGeometry>
        </mxCell>
        <mxCell id="Ew93AZ5DGdFRE2sciLYH-120" value="master" style="text;html=1;strokeColor=none;fillColor=none;align=center;verticalAlign=middle;whiteSpace=wrap;overflow=hidden;fontSize=14;fontStyle=1;fontFamily=Courier New;" vertex="1" parent="1">
          <mxGeometry x="53.120000000000005" y="1294" width="50" height="42" as="geometry" />
        </mxCell>
        <mxCell id="Ew93AZ5DGdFRE2sciLYH-124" value="The main branch&lt;br&gt;" style="text;html=1;strokeColor=none;fillColor=none;align=left;verticalAlign=middle;whiteSpace=wrap;overflow=hidden;fontSize=14;fontStyle=0;fontColor=#009900;" vertex="1" parent="1">
          <mxGeometry x="58.370000000000005" y="1324" width="146.75" height="20" as="geometry" />
        </mxCell>
        <mxCell id="Ew93AZ5DGdFRE2sciLYH-126" value="360e40d" style="text;html=1;strokeColor=none;fillColor=none;align=center;verticalAlign=middle;whiteSpace=wrap;overflow=hidden;fontSize=14;" vertex="1" parent="1">
          <mxGeometry x="212.37" y="1274" width="70" height="20" as="geometry" />
        </mxCell>
        <mxCell id="Ew93AZ5DGdFRE2sciLYH-127" value="" style="edgeStyle=orthogonalEdgeStyle;rounded=0;orthogonalLoop=1;jettySize=auto;html=1;fontSize=15;endArrow=none;endFill=0;strokeWidth=4;entryX=0;entryY=0.5;entryDx=0;entryDy=0;entryPerimeter=0;" edge="1" parent="1">
          <mxGeometry relative="1" as="geometry">
            <mxPoint x="592.37" y="1315" as="targetPoint" />
            <mxPoint x="452.37" y="1315" as="sourcePoint" />
          </mxGeometry>
        </mxCell>
        <mxCell id="Ew93AZ5DGdFRE2sciLYH-128" value="929993" style="text;html=1;strokeColor=none;fillColor=none;align=center;verticalAlign=middle;whiteSpace=wrap;overflow=hidden;fontSize=14;" vertex="1" parent="1">
          <mxGeometry x="398.62" y="1274" width="70" height="20" as="geometry" />
        </mxCell>
        <mxCell id="Ew93AZ5DGdFRE2sciLYH-130" value="" style="verticalLabelPosition=bottom;verticalAlign=top;html=1;strokeWidth=4;shape=mxgraph.flowchart.on-page_reference;plain-blue;gradientColor=none;fillColor=#B5E3Fe;strokeColor=#000000;" vertex="1" parent="1">
          <mxGeometry x="422.37" y="1300" width="30" height="30" as="geometry" />
        </mxCell>
        <mxCell id="Ew93AZ5DGdFRE2sciLYH-131" value="" style="verticalLabelPosition=bottom;verticalAlign=top;html=1;strokeWidth=4;shape=mxgraph.flowchart.on-page_reference;plain-blue;gradientColor=none;fillColor=#B5E3Fe;strokeColor=#000000;" vertex="1" parent="1">
          <mxGeometry x="590.12" y="1300" width="30" height="30" as="geometry" />
        </mxCell>
        <mxCell id="Ew93AZ5DGdFRE2sciLYH-132" value="d10dd64" style="text;html=1;strokeColor=none;fillColor=none;align=center;verticalAlign=middle;whiteSpace=wrap;overflow=hidden;fontSize=14;" vertex="1" parent="1">
          <mxGeometry x="570.12" y="1274" width="70" height="20" as="geometry" />
        </mxCell>
        <mxCell id="Ew93AZ5DGdFRE2sciLYH-133" value="&lt;b&gt;HEAD&lt;/b&gt;" style="html=1;verticalLabelPosition=bottom;labelBackgroundColor=#ffffff;verticalAlign=top;shadow=0;dashed=0;strokeWidth=2;shape=mxgraph.ios7.misc.up;strokeColor=#0080f0;rotation=-30;" vertex="1" parent="1">
          <mxGeometry x="810" y="1330" width="40" height="40" as="geometry" />
        </mxCell>
        <mxCell id="Ew93AZ5DGdFRE2sciLYH-135" value="" style="edgeStyle=orthogonalEdgeStyle;rounded=0;html=1;jettySize=auto;orthogonalLoop=1;plain-blue;endArrow=none;endFill=0;strokeWidth=4;strokeColor=#000000;entryX=0;entryY=0.5;entryDx=0;entryDy=0;entryPerimeter=0;" edge="1" parent="1">
          <mxGeometry x="620.49" y="1314.5" as="geometry">
            <mxPoint x="780.49" y="1314.5" as="targetPoint" />
            <mxPoint x="620.12" y="1314.5" as="sourcePoint" />
          </mxGeometry>
        </mxCell>
        <mxCell id="Ew93AZ5DGdFRE2sciLYH-139" value="Fast-forward" style="text;html=1;strokeColor=none;fillColor=none;align=center;verticalAlign=middle;whiteSpace=wrap;rounded=0;fontStyle=1" vertex="1" parent="1">
          <mxGeometry x="55.120000000000005" y="1230" width="150" height="30" as="geometry" />
        </mxCell>
        <mxCell id="Ew93AZ5DGdFRE2sciLYH-141" value="5a95c45" style="text;html=1;strokeColor=none;fillColor=none;align=center;verticalAlign=middle;whiteSpace=wrap;overflow=hidden;fontSize=14;" vertex="1" parent="1">
          <mxGeometry x="763.38" y="1274" width="70" height="20" as="geometry" />
        </mxCell>
        <mxCell id="Ew93AZ5DGdFRE2sciLYH-142" value="" style="verticalLabelPosition=bottom;verticalAlign=top;html=1;strokeWidth=4;shape=mxgraph.flowchart.on-page_reference;plain-purple;gradientColor=none;strokeColor=#000000;fillColor=#D5E8D4;" vertex="1" parent="1">
          <mxGeometry x="780" y="1300" width="30" height="30" as="geometry" />
        </mxCell>
      </root>
    </mxGraphModel>
  </diagram>
</mxfile>
